<?xml version="1.0" encoding="UTF-8"?>
<svg version="1.1" xmlns="http://www.w3.org/2000/svg" width="1366" height="768">
<path d="M0 0 C450.78 0 901.56 0 1366 0 C1366 253.44 1366 506.88 1366 768 C915.22 768 464.44 768 0 768 C0 514.56 0 261.12 0 0 Z " fill="#DFF1E4" transform="translate(0,0)"/>
<path d="M0 0 C7.39887416 2.88937903 12.30060861 6.29855502 16.3125 13.1875 C18.05940827 18.4282248 17.90220406 23.2800555 15.46875 28.3046875 C10.63771448 36.17144128 3.71045895 42.35183648 -4.6875 46.1875 C-7.89402882 46.89148979 -10.50430097 47.0208697 -13.6875 46.1875 C-15.8125 44.75 -15.8125 44.75 -16.6875 42.1875 C-16.64588837 38.40777698 -16.09129364 34.78158087 -15.1640625 31.12109375 C-13.61786241 24.847577 -14.80022101 20.49204159 -17.1875 14.625 C-20.70110104 5.95142487 -20.70110104 5.95142487 -19.6875 1.1875 C-14.48050546 -5.53120263 -6.90542972 -2.35818076 0 0 Z " fill="#107835" transform="translate(1232.6875,475.8125)"/>
<path d="M0 0 C2.89002494 1.00039325 5.62481981 2.22835395 8.375 3.5625 C9.05272461 3.88444336 9.73044922 4.20638672 10.42871094 4.53808594 C16.28613455 7.59602697 19.86964737 11.60894212 22 18 C22.81473632 23.13593274 22.39846608 27.04682911 19.625 31.5 C14.33033985 38.63030883 6.82287321 46.54716803 -2 49 C-5.82460534 49 -7.93428081 48.79928939 -11 46.5 C-12.76314766 42.09213086 -11.63905566 37.47514841 -10.4765625 32.97265625 C-8.66946194 25.49244493 -10.55944612 20.32798012 -13.87109375 13.58203125 C-15.36519616 10.16472436 -15.67368262 7.6678276 -15 4 C-11.90478794 -1.74825096 -5.66922784 -1.09023612 0 0 Z " fill="#107735" transform="translate(1228,152)"/>
<path d="M0 0 C2.27003232 0.71208986 4.4369872 1.53287079 6.62890625 2.45703125 C7.35464844 2.75867188 8.08039062 3.0603125 8.828125 3.37109375 C13.22213131 5.36910771 15.95928358 7.30428488 18.62890625 11.45703125 C19.22703125 12.36453125 19.82515625 13.27203125 20.44140625 14.20703125 C22.04961246 18.60843772 21.78021703 21.95430212 20.62890625 26.45703125 C16.15889913 36.05926876 8.39370629 44.14326417 -1.37109375 48.45703125 C-4.37109375 48.89453125 -4.37109375 48.89453125 -7.37109375 48.45703125 C-10.5982622 45.65449023 -11.31503866 44.10727025 -11.68359375 39.83203125 C-11.37109375 36.45703125 -11.37109375 36.45703125 -10.37109375 33.45703125 C-9.2755315 25.3720592 -11.16524489 20.24237561 -15.01953125 13.19140625 C-16.85701049 9.4739627 -17.21377969 7.50192376 -16.37109375 3.45703125 C-12.98937394 -2.53783569 -5.89218043 -1.3492802 0 0 Z " fill="#107735" transform="translate(532.37109375,634.54296875)"/>
<path d="M0 0 C7.92720839 3.72752746 14.60680052 8.75400092 18.9375 16.4375 C20.6217963 22.08484641 20.83952408 26.62589585 18.625 32.0625 C14.24191353 39.87849336 5.00328544 44.03488531 -3.0234375 47.1875 C-7.4257155 48.38917169 -11.65628929 48.52289459 -16 47 C-17.92893109 44.10660337 -18.52663441 42.63725949 -18.46875 39.21484375 C-17.83039835 36.19863218 -16.46288936 33.83341544 -15 31.125 C-12.0584318 25.60869445 -11.31232109 22.18911018 -12 16 C-12.33 15.01 -12.66 14.02 -13 13 C-13.56594179 8.15715527 -13.98566829 4.32449176 -11 0.3125 C-6.97785796 -1.44718714 -4.07513664 -1.33471374 0 0 Z " fill="#0F7735" transform="translate(22,377)"/>
<path d="M0 0 C8.78547072 2.29890081 17.1350448 6.19227874 22.26171875 13.9375 C24.37447634 18.29787204 25.03483824 23.05673405 24.1796875 27.83203125 C20.07189607 36.98932123 11.32727015 44.95268992 2.1796875 48.83203125 C-0.3046875 49.23046875 -0.3046875 49.23046875 -2.5703125 49.20703125 C-3.70726562 49.21863281 -3.70726562 49.21863281 -4.8671875 49.23046875 C-6.8203125 48.83203125 -6.8203125 48.83203125 -8.8203125 45.83203125 C-9.05078125 43.421875 -9.05078125 43.421875 -9.0078125 40.76953125 C-9.00136719 39.89167969 -8.99492187 39.01382813 -8.98828125 38.109375 C-8.8203125 35.83203125 -8.8203125 35.83203125 -7.8203125 33.83203125 C-6.94090983 26.00534747 -7.93254974 20.29480027 -11.7265625 13.40234375 C-13.03639768 10.32423108 -13.13246299 8.14806467 -12.8203125 4.83203125 C-9.43511517 -0.65432305 -5.92520137 -0.85907391 0 0 Z " fill="#0F7735" transform="translate(186.8203125,473.16796875)"/>
<path d="M0 0 C8.84294168 3.13579492 14.623245 7.42101347 19.4375 15.375 C20.71318721 21.32820699 19.75614819 26.32502333 16.5625 31.5 C10.6744877 39.56770916 3.3445226 46.63357719 -6.6875 48.5 C-9 48 -9 48 -11.3125 45.9375 C-13.62810285 41.90663577 -13.63129529 38.52017086 -12.5078125 34.03515625 C-10.86776935 27.46236795 -11.79707132 22.8987155 -15 16.9375 C-17.73308804 11.84136198 -19.12711362 8.73803295 -18 3 C-12.53221495 -2.58622083 -7.19458711 -1.51295568 0 0 Z " fill="#107836" transform="translate(534,152)"/>
<path d="M0 0 C9.5058296 2.8049989 17.1463906 7.42485975 23.25 15.25 C25.80305282 20.21242735 25.53001216 25.71722417 24.8125 31.125 C21.31993469 39.17308527 12.67730589 44.12152941 4.85546875 47.3984375 C0.01109235 49.12129412 -4.05458214 49.53237443 -9.1875 49.125 C-11.1875 47.5 -11.1875 47.5 -12.1875 45.125 C-12.54129419 40.5635821 -11.84205072 37.87288856 -9.6875 33.875 C-6.23050206 26.70710032 -6.58241398 20.7491586 -8.1875 13.125 C-8.77244821 8.53976079 -8.76887753 5.98825754 -6.125 2.0625 C-3.1875 0.125 -3.1875 0.125 0 0 Z " fill="#0F7735" transform="translate(709.1875,695.875)"/>
<path d="M0 0 C8.73217242 3.58200645 17.62959407 10.13861456 21.4140625 18.9921875 C22.78207955 23.67992592 22.53489836 27.56422019 20.8125 32.1875 C15.69156822 40.13377345 6.97231879 45.53276148 -1.9140625 48.59765625 C-5.92874037 49.37202296 -10.07945024 49.15138822 -14 48 C-15.92893109 45.10660337 -16.52663441 43.63725949 -16.46875 40.21484375 C-15.83039835 37.19863218 -14.46288936 34.83341544 -13 32.125 C-9.8361463 26.18439941 -8.82872544 21.57614247 -10.50390625 15.03125 C-11.40335514 11.34846716 -11.60506937 7.74730465 -11 4 C-7.74227678 0.07156906 -4.98435107 -0.86267615 0 0 Z " fill="#0F7735" transform="translate(1059,376)"/>
<path d="M0 0 C8.74402097 2.23990674 16.14417041 5.51073502 20.9375 13.375 C23.64325986 18.76865993 23.7238246 22.65821453 21.9375 28.4375 C17.62172428 37.36875808 9.27232355 44.10797058 0.390625 48.203125 C-2.81423567 49.27141189 -4.78632457 48.97807513 -8 48 C-9.9375 46.5 -9.9375 46.5 -11 44 C-10.97917492 40.22371803 -10.40262739 36.58947678 -9.4765625 32.93359375 C-7.63038685 25.44296305 -9.91469074 20.01240402 -12.90625 13.1484375 C-14.05451882 9.84306367 -14.30564719 7.47057457 -14 4 C-10.85517978 -1.4319622 -5.56568763 -0.77171299 0 0 Z " fill="#107735" transform="translate(1227,313)"/>
<path d="M0 0 C7.77680573 3.44776874 15.12946597 9.35599732 18.5 17.30859375 C19.97293763 22.30292532 19.66591847 26.54915195 17.71484375 31.37109375 C12.89222965 39.97086014 2.10398734 44.50253803 -6.91015625 47.30859375 C-10.95298523 48.05921672 -13.81907614 47.99051882 -17.41015625 45.74609375 C-18.95697522 43.23251292 -19.58921756 41.45371059 -19.44921875 38.48828125 C-18.71754911 35.52979096 -17.35015921 33.11568457 -15.91015625 30.43359375 C-12.96858805 24.9172882 -12.22247734 21.49770393 -12.91015625 15.30859375 C-13.24015625 14.31859375 -13.57015625 13.32859375 -13.91015625 12.30859375 C-14.48000824 7.43228883 -14.91693601 3.62045829 -11.84765625 -0.37890625 C-7.43906242 -2.34870349 -4.4625451 -1.61527706 0 0 Z " fill="#107735" transform="translate(22.91015625,88.69140625)"/>
<path d="M0 0 C8.3711171 2.19047659 17.5041254 6.08946938 22.2578125 13.66015625 C24.56497735 19.09568022 24.74149977 23.88221218 23.1171875 29.51953125 C18.22920996 37.87639608 10.54201594 45.7112551 1.1796875 48.83203125 C-5.03673041 49.2760611 -5.03673041 49.2760611 -7.6953125 47.76953125 C-9.43191813 44.77871044 -9.64825688 42.27314357 -9.8203125 38.83203125 C-9.15946667 36.49704267 -8.49219747 34.16386732 -7.8203125 31.83203125 C-6.84069038 24.69303507 -8.33367906 19.76833997 -11.7265625 13.47265625 C-13.01474728 10.36261013 -13.13538447 8.16996758 -12.8203125 4.83203125 C-9.43511517 -0.65432305 -5.92520137 -0.85907391 0 0 Z " fill="#107835" transform="translate(186.8203125,634.16796875)"/>
<path d="M0 0 C7.66901913 1.12454367 15.77833278 4.190482 21 10.1015625 C25.1852713 15.74373204 26.08219572 20.5163801 25.25 27.4765625 C21.2697456 37.34067123 11.79299923 45.1683942 2.25 49.4765625 C-1.56751571 50.18350985 -2.84363819 50.02514991 -6.125 48.0390625 C-8.50168245 44.2912171 -8.23626489 40.80511718 -7.75 36.4765625 C-7.42 35.4865625 -7.09 34.4965625 -6.75 33.4765625 C-5.88642953 25.48236726 -7.07127637 20.06397177 -10.69140625 12.95703125 C-12.19034415 9.44475978 -11.94371937 7.05772062 -10.75 3.4765625 C-7.75340626 -0.44776924 -4.65939659 -0.13631213 0 0 Z " fill="#107735" transform="translate(883.75,629.5234375)"/>
<path d="M0 0 C8.17190499 2.46431797 14.68167803 6.50786531 19.62890625 13.4921875 C21.61549498 17.27616603 22.20086303 20.24336571 21.62890625 24.4921875 C17.12009444 35.32138728 9.03938881 43.28694622 -1.37109375 48.4921875 C-4.24609375 48.8671875 -4.24609375 48.8671875 -7.37109375 48.4921875 C-10.5982622 45.68964648 -11.31503866 44.1424265 -11.68359375 39.8671875 C-11.37109375 36.4921875 -11.37109375 36.4921875 -10.37109375 33.4921875 C-9.2755315 25.40721545 -11.16524489 20.27753186 -15.01953125 13.2265625 C-16.85701049 9.50911895 -17.21377969 7.53708001 -16.37109375 3.4921875 C-12.97771851 -2.52334134 -5.91495352 -1.266794 0 0 Z " fill="#107735" transform="translate(532.37109375,473.5078125)"/>
<path d="M0 0 C8.56581325 2.57079758 15.00450454 5.97972978 20.375 13.1875 C22.68582806 17.64409697 22.78047372 22.10430121 22 27 C20.20964209 31.94981304 16.84456884 35.50493742 13 39 C12.08347656 39.87011719 12.08347656 39.87011719 11.1484375 40.7578125 C5.8843904 45.61536948 1.66856748 49.1202809 -5.8125 48.875 C-9 48 -9 48 -11 45 C-11.5420366 40.81515859 -11.34580047 36.97637781 -9.9375 33 C-8.33797551 27.88152165 -8.93091303 23.29994368 -11.1875 18.4453125 C-11.64125 17.59710938 -12.095 16.74890625 -12.5625 15.875 C-14.7841598 11.71584619 -15.86344834 8.79693521 -15 4 C-11.92067423 -1.71874785 -5.66299325 -0.83258202 0 0 Z " fill="#0F7735" transform="translate(887,469)"/>
<path d="M0 0 C8.21647744 2.78179322 16.96119298 6.71754255 21.21484375 14.63671875 C23.01976949 20.06945542 22.76516713 24.83202646 20.875 30.1875 C15.34964241 38.47553639 8.23805843 44.95595367 -1 49 C-4.52442018 49.44055252 -6.31670818 49.41357136 -9.375 47.5625 C-11.77951125 43.77077071 -11.54518018 40.37679866 -11 36 C-10.649375 35.01 -10.29875 34.02 -9.9375 33 C-7.91940349 26.54209118 -9.71604765 21.28203695 -12.625 15.375 C-15.4187774 9.59309547 -15.4187774 9.59309547 -15.0625 6 C-12.56615239 -1.04851089 -6.52867869 -1.25677065 0 0 Z " fill="#0F7735" transform="translate(887,308)"/>
<path d="M0 0 C7.77680573 3.44776874 15.12946597 9.35599732 18.5 17.30859375 C19.97293763 22.30292532 19.66591847 26.54915195 17.71484375 31.37109375 C12.89222965 39.97086014 2.10398734 44.50253803 -6.91015625 47.30859375 C-10.95298523 48.05921672 -13.81907614 47.99051882 -17.41015625 45.74609375 C-18.95697522 43.23251292 -19.58921756 41.45371059 -19.44921875 38.48828125 C-18.71754911 35.52979096 -17.35015921 33.11568457 -15.91015625 30.43359375 C-12.96858805 24.9172882 -12.22247734 21.49770393 -12.91015625 15.30859375 C-13.24015625 14.31859375 -13.57015625 13.32859375 -13.91015625 12.30859375 C-14.48000824 7.43228883 -14.91693601 3.62045829 -11.84765625 -0.37890625 C-7.43906242 -2.34870349 -4.4625451 -1.61527706 0 0 Z " fill="#107735" transform="translate(22.91015625,216.69140625)"/>
<path d="M0 0 C8.05573404 3.51115456 15.38457539 9.47949464 19.19921875 17.53125 C20.73664056 22.27100893 20.51687485 26.41707076 19 31.0625 C13.98435321 38.42923123 7.03917331 42.49843512 -1 46 C-1.84046875 46.36738281 -2.6809375 46.73476563 -3.546875 47.11328125 C-7.33634087 48.48304041 -9.96787532 48.38401187 -14 48 C-16.5 46.5 -16.5 46.5 -18 44 C-18.91543993 37.89706711 -17.73087742 34.73311273 -14.19140625 29.76171875 C-12.13143386 26.71566122 -11.8630962 24.07113972 -11.875 20.5 C-11.87242188 19.7265625 -11.86984375 18.953125 -11.8671875 18.15625 C-11.91854187 15.81552983 -11.91854187 15.81552983 -13 13 C-13.46444995 8.4392538 -13.75732649 4.41587127 -11.5625 0.3125 C-7.50091237 -1.76782537 -4.30934336 -1.25436286 0 0 Z " fill="#107735" transform="translate(1061,699)"/>
<path d="M0 0 C9.19108849 2.77166273 16.15929009 7.49921413 21.00390625 15.8671875 C22.26880615 21.17976708 21.2124392 25.2602846 18.94140625 30.0546875 C13.93316853 37.95298354 7.28066219 44.67012664 -1.37109375 48.4921875 C-4.37109375 48.9296875 -4.37109375 48.9296875 -7.37109375 48.4921875 C-10.56980519 45.71435914 -11.31207344 44.16501904 -11.68359375 39.9296875 C-11.37109375 36.4921875 -11.37109375 36.4921875 -10.87890625 34.55859375 C-8.8239129 26.19635159 -11.02118485 20.6425525 -15.01953125 13.26171875 C-16.84355367 9.52405431 -17.21626688 7.54901854 -16.37109375 3.4921875 C-12.97771851 -2.52334134 -5.91495352 -1.266794 0 0 Z " fill="#0F7735" transform="translate(532.37109375,312.5078125)"/>
<path d="M0 0 C8.62908593 3.25222771 16.16255137 7.97331837 21.19140625 15.87109375 C22.24210196 18.63741822 22.30132149 20.98264657 22.3125 23.9375 C22.32925781 24.95714844 22.34601562 25.97679687 22.36328125 27.02734375 C21.61400302 33.15853442 17.75212706 36.49797923 13.24609375 40.29296875 C6.73624115 45.24045672 -0.38409435 49.23079528 -8.75 48.8125 C-12 48 -12 48 -13.9375 46.875 C-15.73354094 43.70551598 -15.45821747 41.60846254 -15 38 C-14.21188963 36.39367782 -13.37377637 34.8113788 -12.5 33.25 C-8.88958383 26.57990911 -9.17853434 20.19980914 -11 13 C-11.46307774 8.68806301 -11.73778152 5.2099617 -9.4375 1.4375 C-6.074853 -0.54559951 -3.7254485 -0.86638337 0 0 Z " fill="#0F7735" transform="translate(712,214)"/>
<path d="M0 0 C8.21647744 2.78179322 16.96119298 6.71754255 21.21484375 14.63671875 C23.01976949 20.06945542 22.76516713 24.83202646 20.875 30.1875 C15.25122171 38.62316744 7.85781842 45.78825916 -2 49 C-5.6875 48.8125 -5.6875 48.8125 -9 48 C-11.69911352 43.95132972 -11.43504685 40.75268162 -11 36 C-10.649375 35.01 -10.29875 34.02 -9.9375 33 C-7.91940349 26.54209118 -9.71604765 21.28203695 -12.625 15.375 C-15.4187774 9.59309547 -15.4187774 9.59309547 -15.0625 6 C-12.56615239 -1.04851089 -6.52867869 -1.25677065 0 0 Z " fill="#0F7735" transform="translate(887,19)"/>
<path d="M0 0 C8.44030082 3.69548306 16.61011988 9.29719769 20.37890625 17.95703125 C21.80501805 22.64795246 21.54004337 26.5504099 19.8125 31.1875 C14.42851177 39.54196449 4.68078611 45.66728045 -5 48 C-8.74365789 48.49366917 -11.93804078 48.42478369 -15.5 47 C-17.36300438 44.51599415 -17.66359882 42.51694351 -17.5390625 39.4375 C-16.84893682 36.31693171 -15.51325786 33.87386057 -14 31.0625 C-10.82147504 25.14670413 -9.83264703 20.56082091 -11.50390625 14.03125 C-12.40402009 10.34574451 -12.59762478 6.75061071 -12 3 C-8.3807881 -1.60626969 -5.42411957 -1.53683388 0 0 Z " fill="#107735" transform="translate(1060,216)"/>
<path d="M0 0 C8.81937854 3.3549221 15.65680984 9.19416415 21 16.875 C22.81316075 22.54112734 23.05747079 27.75287457 20.5 33.1875 C13.07987447 41.53514122 3.56590916 48.99670342 -8.0625 49.6875 C-12 49 -12 49 -14.625 46.875 C-16.40889265 43.14504265 -16.26508468 41.94408753 -15 38 C-14.15876778 36.38901281 -13.30325749 34.78544097 -12.4375 33.1875 C-9.4527775 27.47610017 -9.21960331 22.80443388 -10.5 16.5625 C-11.31988427 12.36059311 -11.63051204 8.24879134 -11 4 C-7.68462083 -0.09546838 -5.07625671 -0.38951475 0 0 Z " fill="#0F7735" transform="translate(353,74)"/>
<path d="M0 0 C8.40183953 2.3816238 15.14292918 6.01404202 20.125 13.3125 C22.25633193 17.57516385 21.7007518 22.69508459 21.125 27.3125 C17.82393393 35.58473671 9.32659736 43.64791979 1.3125 47.375 C-3.99338006 48.93555296 -3.99338006 48.93555296 -6.875 48.3125 C-10.01310785 45.51364705 -10.81803604 43.96188912 -11.1875 39.75 C-10.875 36.3125 -10.875 36.3125 -10.3828125 34.34765625 C-8.38231314 26.33027036 -10.70807879 21.28088424 -14.5234375 14.18359375 C-16.44686616 10.09769761 -16.66673102 7.74619372 -15.875 3.3125 C-12.24869018 -2.7313497 -5.98881022 -1.06253085 0 0 Z " fill="#0F7735" transform="translate(531.875,23.6875)"/>
<path d="M0 0 C8.73217242 3.58200645 17.62959407 10.13861456 21.4140625 18.9921875 C22.75733129 23.59512189 22.50018218 27.46819207 21 32.0625 C15.98435321 39.42923123 9.03917331 43.49843512 1 47 C0.15953125 47.36738281 -0.6809375 47.73476563 -1.546875 48.11328125 C-5.33634087 49.48304041 -7.96787532 49.38401187 -12 49 C-14.5 47.4375 -14.5 47.4375 -16 45 C-17.10059202 39.71715831 -15.51977534 36.81823084 -13 32.125 C-10.0584318 26.60869445 -9.31232109 23.18911018 -10 17 C-10.33 16.01 -10.66 15.02 -11 14 C-11.39602909 10.61112249 -11.48712138 7.38217232 -11 4 C-7.78526407 0.02885561 -4.98163226 -0.86220558 0 0 Z " fill="#107735" transform="translate(1059,537)"/>
<path d="M0 0 C8.35298338 2.79777865 15.44621639 8.49445587 20.23046875 15.90625 C21.24022144 18.65359742 21.30144201 21.01450552 21.3125 23.9375 C21.32925781 24.95714844 21.34601562 25.97679687 21.36328125 27.02734375 C20.62001775 33.10931709 16.79238259 36.50640254 12.32421875 40.2890625 C4.77625553 45.84537828 -3.55023018 49.27070768 -13 48 C-15.60863092 45.94471503 -15.88645273 44.59612319 -16.5 41.375 C-15.99644627 37.97601235 -15.14842676 36.26749228 -13.5 33.3125 C-9.71205645 26.22883155 -10.43907243 19.64485786 -12 12 C-12.44164591 8.11206793 -12.57677878 4.96129796 -10.5 1.5 C-6.92340538 -0.64595677 -3.98888664 -0.768942 0 0 Z " fill="#0F7735" transform="translate(713,536)"/>
<path d="M0 0 C8.07798815 1.3493912 16.18279214 5.26236685 21.25 11.82421875 C24.5070188 16.8350169 25.37890935 21.7020614 24.4375 27.57421875 C20.60818849 36.3831488 12.20856679 44.01771717 3.6875 48.19921875 C-0.0299731 49.6401508 -2.71537323 49.98170415 -6.5625 48.57421875 C-8.74335057 45.30294289 -8.81137859 44.30045152 -8.75 40.51171875 C-8.74355469 39.63386719 -8.73710937 38.75601563 -8.73046875 37.8515625 C-8.5625 35.57421875 -8.5625 35.57421875 -7.5625 33.57421875 C-6.68309733 25.74753497 -7.67473724 20.03698777 -11.46875 13.14453125 C-12.80706114 9.99950007 -13.03204324 7.96034788 -12.5625 4.57421875 C-9.09495771 -0.28522432 -5.61307958 -0.19948445 0 0 Z " fill="#0F7735" transform="translate(186.5625,312.42578125)"/>
<path d="M0 0 C8.21647744 2.78179322 16.96119298 6.71754255 21.21484375 14.63671875 C23.01976949 20.06945542 22.76516713 24.83202646 20.875 30.1875 C15.25122171 38.62316744 7.85781842 45.78825916 -2 49 C-5.6875 48.8125 -5.6875 48.8125 -9 48 C-11.69911352 43.95132972 -11.43504685 40.75268162 -11 36 C-10.649375 35.01 -10.29875 34.02 -9.9375 33 C-7.91940349 26.54209118 -9.71604765 21.28203695 -12.625 15.375 C-15.4187774 9.59309547 -15.4187774 9.59309547 -15.0625 6 C-12.56615239 -1.04851089 -6.52867869 -1.25677065 0 0 Z " fill="#107735" transform="translate(887,147)"/>
<path d="M0 0 C8.44030082 3.69548306 16.61011988 9.29719769 20.37890625 17.95703125 C21.80501805 22.64795246 21.54004337 26.5504099 19.8125 31.1875 C14.4204119 39.55453326 4.68458933 45.64691705 -5 48 C-8.96706693 48.58852092 -11.9910339 48.63060381 -15.5 46.4375 C-17.04681897 43.92391917 -17.67906131 42.14511684 -17.5390625 39.1796875 C-16.80739286 36.22119721 -15.44000296 33.80709082 -14 31.125 C-10.8361463 25.18439941 -9.82872544 20.57614247 -11.50390625 14.03125 C-12.40402009 10.34574451 -12.59762478 6.75061071 -12 3 C-8.3807881 -1.60626969 -5.42411957 -1.53683388 0 0 Z " fill="#0F7735" transform="translate(1060,88)"/>
<path d="M0 0 C2.89002494 1.00039325 5.62481981 2.22835395 8.375 3.5625 C9.05272461 3.88444336 9.73044922 4.20638672 10.42871094 4.53808594 C16.28613455 7.59602697 19.86964737 11.60894212 22 18 C22.57465323 25.47049205 20.55017702 30.35382223 15.9375 36 C10.74458532 41.66700243 4.34312264 46.55229245 -3 49 C-6.3595783 48.86561687 -8.2671372 48.56737765 -10.9375 46.5 C-12.80815846 42.09845068 -11.62420456 37.46421054 -10.4765625 32.93359375 C-8.63038685 25.44296305 -10.91469074 20.01240402 -13.90625 13.1484375 C-15.05423842 9.84387082 -15.30064431 7.4697311 -15 4 C-11.8336253 -1.72963041 -5.69808038 -1.09578469 0 0 Z " fill="#107735" transform="translate(1228,24)"/>
<path d="M0 0 C7.92720839 3.72752746 14.60680052 8.75400092 18.9375 16.4375 C20.50289284 21.6861701 20.73748681 25.74144666 19 31.0625 C13.98435321 38.42923123 7.03917331 42.49843512 -1 46 C-1.84046875 46.36738281 -2.6809375 46.73476563 -3.546875 47.11328125 C-7.33634087 48.48304041 -9.96787532 48.38401187 -14 48 C-16.5 46.4375 -16.5 46.4375 -18 44 C-19.04781335 38.8657146 -17.56979638 35.99891194 -15 31.6875 C-11.85390369 26.32062982 -11.09551792 22.13673919 -12 16 C-12.33 15.01 -12.66 14.02 -13 13 C-13.56594179 8.15715527 -13.98566829 4.32449176 -11 0.3125 C-6.97785796 -1.44718714 -4.07513664 -1.33471374 0 0 Z " fill="#0F7735" transform="translate(22,538)"/>
<path d="M0 0 C2.89002494 1.00039325 5.62481981 2.22835395 8.375 3.5625 C9.05272461 3.88444336 9.73044922 4.20638672 10.42871094 4.53808594 C16.28613455 7.59602697 19.86964737 11.60894212 22 18 C22.54224993 24.39854916 21.68208391 28.68831033 18 34 C12.82307184 40.05285093 5.93463429 47.01634143 -2 49 C-5.6875 48.8125 -5.6875 48.8125 -9 48 C-11.18085057 44.72872414 -11.24887859 43.72623277 -11.1875 39.9375 C-11.18105469 39.05964844 -11.17460937 38.18179688 -11.16796875 37.27734375 C-11 35 -11 35 -10 33 C-9.03871556 25.33718976 -10.53033664 19.69795345 -13.90625 12.82421875 C-15.13508099 9.65120158 -15.28794632 7.37510846 -15 4 C-11.8336253 -1.72963041 -5.69808038 -1.09578469 0 0 Z " fill="#0F7735" transform="translate(189,152)"/>
<path d="M0 0 C7.93798087 3.63017418 14.62987215 8.79493447 18.9375 16.4375 C20.50289284 21.6861701 20.73748681 25.74144666 19 31.0625 C13.98435321 38.42923123 7.03917331 42.49843512 -1 46 C-1.84046875 46.36738281 -2.6809375 46.73476563 -3.546875 47.11328125 C-7.33634087 48.48304041 -9.96787532 48.38401187 -14 48 C-16.5 46.4375 -16.5 46.4375 -18 44 C-19.04781335 38.8657146 -17.56979638 35.99891194 -15 31.6875 C-11.85390369 26.32062982 -11.09551792 22.13673919 -12 16 C-12.33 15.01 -12.66 14.02 -13 13 C-13.46444995 8.4392538 -13.75732649 4.41587127 -11.5625 0.3125 C-7.50588864 -1.76527655 -4.30322247 -1.2640716 0 0 Z " fill="#0F7735" transform="translate(22,699)"/>
<path d="M0 0 C8.62696144 3.20429996 14.76797076 8.35395796 20 15.875 C21.81316075 21.54112734 22.05747079 26.75287457 19.5 32.1875 C11.94931958 40.68201548 2.69225859 47.26740394 -8.9375 48.375 C-12.28390911 48.32560651 -12.83871671 48.13374712 -15.5625 45.875 C-17.42820342 42.14359316 -17.27510813 40.9753371 -16 37 C-15.15711243 35.41063356 -14.30174093 33.82785701 -13.4375 32.25 C-10.47481555 26.59784695 -9.92204043 21.2282755 -11.50390625 15.0234375 C-12.71643475 10.07784881 -13.00666887 4.80361506 -10.5 0.3125 C-6.78397192 -1.63841474 -3.8733753 -1.13139828 0 0 Z " fill="#0F7734" transform="translate(354,364)"/>
<path d="M0 0 C8.36587724 3.70171559 14.74082514 8.26893972 19.9375 15.8125 C21.66991645 21.00974934 22.10099231 25.98955725 20.19140625 31.2109375 C15.35019684 39.9552673 5.15582507 44.89097163 -4 48 C-7.16985765 48.60009519 -9.85987921 48.80615938 -13 48 C-15.625 45.875 -15.625 45.875 -17 43 C-17.09869888 38.75594798 -15.42134197 35.87192863 -13.4375 32.25 C-10.47299888 26.59438115 -9.9293065 21.23258523 -11.5 15.0234375 C-12.48397461 11.04141525 -12.58480484 7.05330249 -12 3 C-8.57445315 -1.46359135 -5.07512866 -1.78674942 0 0 Z " fill="#0F7735" transform="translate(354,203)"/>
<path d="M0 0 C8.62908593 3.25222771 16.16255137 7.97331837 21.19140625 15.87109375 C22.24210196 18.63741822 22.30132149 20.98264657 22.3125 23.9375 C22.32925781 24.95714844 22.34601562 25.97679688 22.36328125 27.02734375 C21.62001775 33.10931709 17.79238259 36.50640254 13.32421875 40.2890625 C7.05114131 44.90689093 0.27540554 48.09085471 -7.5625 48.25 C-8.32691406 48.27578125 -9.09132813 48.3015625 -9.87890625 48.328125 C-12.55432497 47.91424807 -13.39412863 47.14616454 -15 45 C-15.78479296 40.19314313 -14.80160799 37.36281655 -12.5 33.25 C-8.88958383 26.57990911 -9.17853434 20.19980914 -11 13 C-11.46307774 8.68806301 -11.73778152 5.2099617 -9.4375 1.4375 C-6.074853 -0.54559951 -3.7254485 -0.86638337 0 0 Z " fill="#0F7735" transform="translate(712,86)"/>
<path d="M0 0 C7.90593762 2.83964692 13.88171375 5.3084463 18.11328125 12.85546875 C20.12947559 17.3791989 20.76427141 21.24798476 18.97265625 26.01953125 C15.80425392 32.73352667 11.65823365 37.31220155 5.67578125 41.73046875 C4.11150391 42.89835938 4.11150391 42.89835938 2.515625 44.08984375 C-1.8040771 47.03040045 -5.09982874 47.34917518 -10.26171875 46.98046875 C-12.13671875 45.91796875 -12.13671875 45.91796875 -13.26171875 43.98046875 C-14.61090393 38.58372803 -13.77178686 35.22129338 -12.26171875 29.98046875 C-11.26971713 22.75125696 -12.94096656 17.97609032 -16.12890625 11.52734375 C-17.65358686 8.09944113 -18.01301841 5.66183708 -17.26171875 1.98046875 C-12.49734886 -4.1671053 -6.51308884 -2.03582777 0 0 Z " fill="#0F7735" transform="translate(1230.26171875,636.01953125)"/>
<path d="M0 0 C9.21044866 3.5615681 15.96165161 8.66024534 20.859375 17.30859375 C22.69057184 21.62946576 22.91521601 25.41596154 22 30 C17.45179439 39.46026766 8.16917047 43.88459746 -1 48 C-5.30897238 49.43632413 -9.14717513 49.71262495 -13.4375 48.0625 C-15.61474041 45.18854265 -15.60426413 43.00081564 -15.47265625 39.453125 C-14.94252777 36.70171439 -13.99033767 34.9857628 -12.5 32.625 C-9.33283702 27.55217115 -9.300667 22.84442577 -10 17 C-10.33 16.34 -10.66 15.68 -11 15 C-11.91302455 5.57040222 -11.91302455 5.57040222 -9.4375 1.3125 C-5.90049475 -0.59204129 -4.00399432 -0.58122498 0 0 Z " fill="#0F7735" transform="translate(353,685)"/>
<path d="M0 0 C8.62908593 3.25222771 16.16255137 7.97331837 21.19140625 15.87109375 C22.24210196 18.63741822 22.30132149 20.98264657 22.3125 23.9375 C22.32925781 24.95714844 22.34601562 25.97679687 22.36328125 27.02734375 C21.62001775 33.10931709 17.79238259 36.50640254 13.32421875 40.2890625 C5.77625553 45.84537828 -2.55023018 49.27070768 -12 48 C-14.60863092 45.94471503 -14.88645273 44.59612319 -15.5 41.375 C-14.99644627 37.97601235 -14.14842676 36.26749228 -12.5 33.3125 C-8.71205645 26.22883155 -9.43907243 19.64485786 -11 12 C-11.44464935 8.08562784 -11.59528743 4.95245988 -9.4375 1.5 C-6.08691051 -0.56190123 -3.74893324 -0.87184494 0 0 Z " fill="#0F7734" transform="translate(712,375)"/>
<path d="M0 0 C8.62696144 3.20429996 14.76797076 8.35395796 20 15.875 C21.81316075 21.54112734 22.05747079 26.75287457 19.5 32.1875 C12.20634378 40.39286324 2.90996121 47.42473009 -8.4375 48.25 C-12 48 -12 48 -14.4375 47.0625 C-16.61474041 44.18854265 -16.60426413 42.00081564 -16.47265625 38.453125 C-15.94252777 35.70171439 -14.99033767 33.9857628 -13.5 31.625 C-10.33283702 26.55217115 -10.300667 21.84442577 -11 16 C-11.33 15.34 -11.66 14.68 -12 14 C-12.47082683 9.13736222 -12.87733031 4.60843891 -10.5 0.25 C-6.77363928 -1.61318036 -3.85250477 -1.12530208 0 0 Z " fill="#0F7734" transform="translate(354,525)"/>
<path d="M0 0 C2.89002494 1.00039325 5.62481981 2.22835395 8.375 3.5625 C9.05272461 3.88444336 9.73044922 4.20638672 10.42871094 4.53808594 C16.28613455 7.59602697 19.86964737 11.60894212 22 18 C22.81473632 23.13593274 22.39846608 27.04682911 19.625 31.5 C13.9411529 39.13641575 6.47132761 46.59142147 -3 49 C-6.4375 48.9375 -6.4375 48.9375 -9 48 C-11.18085057 44.72872414 -11.24887859 43.72623277 -11.1875 39.9375 C-11.18105469 39.05964844 -11.17460937 38.18179688 -11.16796875 37.27734375 C-11 35 -11 35 -10 33 C-9.12059733 25.17331622 -10.11223724 19.46276902 -13.90625 12.5703125 C-15.20914714 9.50850423 -15.27786007 7.29788023 -15 4 C-11.8336253 -1.72963041 -5.69808038 -1.09578469 0 0 Z " fill="#0F7735" transform="translate(189,24)"/>
<path d="M0 0 C3.33204577 1.51110722 6.40087461 3.40087461 9 6 C9.58558559 13.14414414 9.58558559 13.14414414 7.375 16.375 C2.30455881 19.84424923 -2.97750577 20.78292425 -9 20 C-13.11931793 18.41564695 -16.34671532 16.57172938 -19 13 C-19.5625 10.0625 -19.5625 10.0625 -19 7 C-13.65443285 0.46652904 -8.22600313 -1.25418882 0 0 Z " fill="#137A38" transform="translate(584,39)"/>
<path d="M0 0 C2.36530254 1.47884682 4.68852267 2.93852267 6.66796875 4.91796875 C7.25355434 12.06211289 7.25355434 12.06211289 5.04296875 15.29296875 C-0.03476148 18.76720522 -5.30368203 19.68959745 -11.33203125 18.91796875 C-15.94636766 17.23196122 -18.84317961 15.19879356 -21.33203125 10.91796875 C-21.46529503 7.71963799 -21.198533 5.87988885 -19.01953125 3.4609375 C-13.57981353 -1.25801763 -6.74820423 -3.13107634 0 0 Z " fill="#137938" transform="translate(586.33203125,168.08203125)"/>
<path d="M0 0 C4.39473069 2.08171454 7.54309516 4.77412368 10 9 C10.07252219 13.13376477 9.64287006 15.19122799 7.0625 18.4375 C2.01582176 21.01233584 -2.8747371 20.90285373 -8.28515625 19.33984375 C-11.9464785 17.75897377 -14.37818988 15.98719748 -16.5625 12.625 C-18.12814591 8.67684944 -18.44311281 6.96856023 -17 3 C-12.32201183 -1.62308221 -6.12748233 -0.68676639 0 0 Z " fill="#127938" transform="translate(402,716)"/>
<path d="M0 0 C2.5625 2.375 2.5625 2.375 3.625 5.3125 C3.54930514 9.02154819 2.85098829 10.47624816 0.5625 13.375 C-3.86299263 17.56127681 -7.92200628 19.10548282 -13.9375 19.75 C-18.22538031 19.29058425 -20.24645714 18.26213402 -23.4375 15.375 C-24.5625 12.5 -24.5625 12.5 -24.4375 9.375 C-19.7180658 -0.0638684 -9.71730873 -4.59363685 0 0 Z " fill="#157A39" transform="translate(942.4375,143.625)"/>
<path d="M0 0 C4.44626308 1.84844645 7.32963573 3.99445359 10 8 C9.8459426 11.62034895 9.42244138 13.47898897 7.125 16.3125 C2.04402197 20.34739432 -4.83937659 19.56005667 -11 19 C-14.82079656 17.57601309 -16.73454555 15.39818168 -19 12 C-18.92115614 7.66358779 -18.71459315 5.69627025 -15.5625 2.625 C-10.44767703 -0.61854627 -5.98939482 -0.7335598 0 0 Z " fill="#127937" transform="translate(241,43)"/>
<path d="M0 0 C2.86173459 2.07475758 4.71593026 3.74390005 6.5 6.8125 C6.5625 9.875 6.5625 9.875 5.5 12.8125 C0.40671815 17.77174812 -4.02078895 18.1031241 -10.83984375 18.03125 C-14.15247803 17.75884542 -15.96812108 16.9607609 -18.5 14.8125 C-19.28375 14.235 -20.0675 13.6575 -20.875 13.0625 C-22.5 10.8125 -22.5 10.8125 -22.625 7.375 C-21.52921998 3.90502994 -20.54203026 1.86875949 -17.57421875 -0.30859375 C-12.00086016 -2.67018637 -5.5852426 -1.89499302 0 0 Z " fill="#127937" transform="translate(244.5,655.1875)"/>
<path d="M0 0 C5.32859746 2.14389314 8.77645417 4.32114397 11.71484375 9.31640625 C11.90234375 12.94140625 11.90234375 12.94140625 10.71484375 16.31640625 C7.43980714 19.43168498 5.32113723 20.23817483 0.83984375 20.81640625 C-5.02040101 20.4908371 -9.57476407 17.98294222 -13.72265625 13.94140625 C-15.56576601 10.84498185 -16.36062074 8.93870194 -16.28515625 5.31640625 C-11.56197994 -0.42799737 -7.37484374 -2.20614984 0 0 Z " fill="#137A38" transform="translate(1105.28515625,247.68359375)"/>
<path d="M0 0 C0.825 0.556875 1.65 1.11375 2.5 1.6875 C3.11875 2.1 3.7375 2.5125 4.375 2.9375 C6.29995302 5.93187137 5.97572423 8.23849933 5.5 11.6875 C3.3272578 14.31766161 1.55326212 16.16086894 -1.5 17.6875 C-13.82415865 18.72586143 -13.82415865 18.72586143 -18.1875 15.875 C-20.5 13.6875 -20.5 13.6875 -22.5 10.6875 C-22.56281628 7.29542114 -22.42367839 4.84861296 -20.25390625 2.12109375 C-14.34128548 -2.85571653 -6.97029547 -2.6138608 0 0 Z " fill="#117837" transform="translate(587.5,651.3125)"/>
<path d="M0 0 C4.24972885 1.70685831 7.14828971 3.93536213 10 7.5 C11.1676355 10.41908875 11.69581511 11.9074884 11 15 C8.39821841 18.00205568 6.74535694 19.69510699 2.80859375 20.3828125 C-4.28595672 20.55087292 -9.75998269 18.94890524 -15 14 C-16.4880453 11.8033617 -16.96760062 10.15794697 -17.5 7.5625 C-16.88585068 4.41498475 -15.59697902 2.86477161 -13.03515625 0.95703125 C-8.80476763 -1.03230697 -4.52214269 -0.80066266 0 0 Z " fill="#117837" transform="translate(401,394)"/>
<path d="M0 0 C4.24972885 1.70685831 7.14828971 3.93536213 10 7.5 C11.1676355 10.41908875 11.69581511 11.9074884 11 15 C8.39821841 18.00205568 6.74535694 19.69510699 2.80859375 20.3828125 C-4.28595672 20.55087292 -9.75998269 18.94890524 -15 14 C-16.4880453 11.8033617 -16.96760062 10.15794697 -17.5 7.5625 C-16.88585068 4.41498475 -15.59697902 2.86477161 -13.03515625 0.95703125 C-8.80476763 -1.03230697 -4.52214269 -0.80066266 0 0 Z " fill="#117837" transform="translate(401,105)"/>
<path d="M0 0 C4.24972885 1.70685831 7.14828971 3.93536213 10 7.5 C11.1676355 10.41908875 11.69581511 11.9074884 11 15 C8.39821841 18.00205568 6.74535694 19.69510699 2.80859375 20.3828125 C-4.28595672 20.55087292 -9.75998269 18.94890524 -15 14 C-16.4880453 11.8033617 -16.96760062 10.15794697 -17.5 7.5625 C-16.88585068 4.41498475 -15.59697902 2.86477161 -13.03515625 0.95703125 C-8.80476763 -1.03230697 -4.52214269 -0.80066266 0 0 Z " fill="#127937" transform="translate(401,555)"/>
<path d="M0 0 C4.72431234 2.08892169 7.40014945 4.5669718 9.71875 9.30078125 C10.34375 11.86328125 10.34375 11.86328125 9.71875 14.30078125 C7.11696841 17.30283693 5.46410694 18.99588824 1.52734375 19.68359375 C-5.56720672 19.85165417 -11.04123269 18.24968649 -16.28125 13.30078125 C-17.7692953 11.10414295 -18.24885062 9.45872822 -18.78125 6.86328125 C-18.16283562 3.69390754 -16.8234905 2.17188502 -14.25 0.25390625 C-9.67166763 -1.96258799 -4.7557068 -1.45765671 0 0 Z " fill="#127937" transform="translate(402.28125,233.69921875)"/>
<path d="M0 0 C3.30787544 1.34785184 5.97219987 2.73718923 8.65625 5.10546875 C9.93697245 8.2157947 9.52540527 10.04917187 8.53125 13.23046875 C6.25283051 16.04051946 4.98428547 17.07945693 1.53125 18.23046875 C-10.83050711 19.23723402 -10.83050711 19.23723402 -15.15625 16.41796875 C-17.46875 14.23046875 -17.46875 14.23046875 -19.46875 11.23046875 C-19.5320788 7.81071364 -19.41761528 5.35953396 -17.15234375 2.6640625 C-11.80847944 -1.68790124 -6.45625904 -2.01247315 0 0 Z " fill="#137A38" transform="translate(241.46875,171.76953125)"/>
<path d="M0 0 C3.6801411 1.56056616 7.17014004 3.34028007 9 7 C9.57801822 13.24259681 9.57801822 13.24259681 7.1875 16.375 C1.95424928 20.26255768 -4.77463685 19.5659421 -11 19 C-14.82079656 17.57601309 -16.73454555 15.39818168 -19 12 C-18.92115614 7.66358779 -18.71459315 5.69627025 -15.5625 2.625 C-10.45087934 -0.61651554 -5.98610271 -0.740217 0 0 Z " fill="#117836" transform="translate(1280,43)"/>
<path d="M0 0 C4.69139573 2.08701343 7.55340144 4.51192412 9.71484375 9.3046875 C9.77734375 12.9921875 9.77734375 12.9921875 8.71484375 16.3046875 C5.71533112 19.40418388 2.5402353 19.58086258 -1.59765625 19.8046875 C-7.28822808 19.64341623 -11.04716182 18.07639892 -15.28515625 14.3046875 C-17.77058461 11.36736307 -18.28515625 10.08374754 -18.28515625 6.2421875 C-15.45334712 -2.0762518 -7.41846568 -2.25724255 0 0 Z " fill="#117837" transform="translate(1107.28515625,730.6953125)"/>
<path d="M0 0 C3.5625 1.3125 3.5625 1.3125 6 3 C6.61875 3.4125 7.2375 3.825 7.875 4.25 C9.79995302 7.24437137 9.47572423 9.55099933 9 13 C6.45862841 16.15954305 4.85377341 17.71540886 1 19 C-6.08909862 19.51666312 -11.13284908 19.29372074 -16.8125 14.75 C-19 12 -19 12 -19.75 9.0625 C-18.80391436 5.19931698 -17.44506758 3.5523335 -14.33203125 1.13671875 C-9.73448052 -1.10429844 -4.95994943 -0.7026595 0 0 Z " fill="#117836" transform="translate(1280,654)"/>
<path d="M0 0 C4.44626308 1.84844645 7.32963573 3.99445359 10 8 C9.84766281 11.57992406 9.41092799 13.47571257 7.1875 16.3125 C2.31745155 20.06939452 -4.1136244 19.48177181 -10 19 C-14.13938472 17.32663171 -16.68859874 14.82270208 -19 11 C-19.0625 7.9375 -19.0625 7.9375 -18 5 C-12.3859904 -0.32611167 -7.5480172 -0.92445433 0 0 Z " fill="#127937" transform="translate(241,332)"/>
<path d="M0 0 C3.33204577 1.51110722 6.40087461 3.40087461 9 6 C9.375 9.25 9.375 9.25 9 13 C5.93088131 16.71524894 3.81327632 18.81420385 -1.01171875 19.30859375 C-12.16484108 19.69972344 -12.16484108 19.69972344 -16.375 16.375 C-18.47523336 14.10951985 -18.9949293 13.02070537 -19.75 9.9375 C-18.61636391 5.4974253 -16.00956334 3.19317824 -12.125 0.88671875 C-8.16558713 -0.76546272 -4.19631627 -0.6397971 0 0 Z " fill="#127937" transform="translate(584,328)"/>
<path d="M0 0 C4.27439728 1.7957527 6.34909737 3.94895206 8.8125 7.875 C9.62158922 11.83953717 9.16370875 13.29801419 7.0625 16.75 C2.11821182 19.98280381 -2.44770654 19.81801911 -8.1875 18.875 C-12.67344973 17.02287319 -15.49582838 14.91250743 -18.1875 10.875 C-18.83724619 5.75824873 -18.83724619 5.75824873 -18.1875 2.875 C-12.87665592 -2.43584408 -6.71363512 -2.11144457 0 0 Z " fill="#117836" transform="translate(762.1875,728.125)"/>
<path d="M0 0 C0.94488281 -0.01417969 1.88976563 -0.02835938 2.86328125 -0.04296875 C7.22605081 0.31305256 9.88923193 1.43124604 13.0625 4.4375 C14.6875 7.1875 14.6875 7.1875 14.75 10.25 C13.15460221 14.66080566 10.45219912 16.1791005 6.5 18.4375 C0.71030842 19.98141776 -4.44429695 20.15496229 -9.8125 17.375 C-12.3125 15.1875 -12.3125 15.1875 -14.3125 12.1875 C-14.3125 9.10376554 -14.10341401 7.05220191 -11.97265625 4.72265625 C-7.79249353 1.19660212 -5.36891852 0.03632557 0 0 Z " fill="#137938" transform="translate(1106.3125,545.8125)"/>
<path d="M0 0 C3.58008409 1.93921222 4.68995406 3.08924004 6 6.9375 C6 10.67264943 5.30217992 12.08390543 3 15 C-2.48928662 19.94035796 -6.89788622 20.41356595 -14.09765625 20.34375 C-17 20 -17 20 -20.3125 17.875 C-22 15 -22 15 -22.125 12.0625 C-20.16449146 6.72556009 -17.56497515 3.90287028 -12.75 1.125 C-8.33317179 -0.20004846 -4.56729785 -0.76121631 0 0 Z " fill="#137938" transform="translate(940,14)"/>
<path d="M0 0 C4.27439728 1.7957527 6.34909737 3.94895206 8.8125 7.875 C9.62158922 11.83953717 9.16370875 13.29801419 7.0625 16.75 C2.11821182 19.98280381 -2.44770654 19.81801911 -8.1875 18.875 C-12.67344973 17.02287319 -15.49582838 14.91250743 -18.1875 10.875 C-18.83724619 5.75824873 -18.83724619 5.75824873 -18.1875 2.875 C-12.87665592 -2.43584408 -6.71363512 -2.11144457 0 0 Z " fill="#107836" transform="translate(762.1875,567.125)"/>
<path d="M0 0 C4.44626308 1.84844645 7.32963573 3.99445359 10 8 C9.91546429 11.9731785 9.5033138 13.5099313 6.625 16.3125 C1.38879926 19.67862905 -3.94579618 19.63227021 -10 19 C-13.85588572 17.07205714 -17.04192225 14.91615551 -19 11 C-19 8 -19 8 -18 5 C-12.3859904 -0.32611167 -7.5480172 -0.92445433 0 0 Z " fill="#127937" transform="translate(241,493)"/>
<path d="M0 0 C3.08197886 1.67048434 4.72187146 3.27030718 6.671875 6.1953125 C6.59303114 10.53172471 6.38646815 12.49904225 3.234375 15.5703125 C-1.87724566 18.81182804 -6.34202229 18.9355295 -12.328125 18.1953125 C-16.0082661 16.63474634 -19.49826504 14.85503243 -21.328125 11.1953125 C-21.91190566 6.77525891 -21.83781842 4.87975796 -19.140625 1.2578125 C-13.87493027 -2.52847276 -5.8997954 -2.03919103 0 0 Z " fill="#117836" transform="translate(942.328125,328.8046875)"/>
<path d="M0 0 C4.91606709 2.07490748 9.4137009 5.27719294 12 10 C12.125 13.5625 12.125 13.5625 11 17 C7.95836821 19.82437238 5.83131665 20.85611827 1.75 21.5625 C-4.03276647 20.69508503 -9.77531787 18.45549904 -13.76953125 14.046875 C-15.65255214 10.91448469 -15.44628044 8.57024349 -15 5 C-10.81422792 -0.30197797 -6.45360956 -0.9160626 0 0 Z " fill="#127937" transform="translate(66,247)"/>
<path d="M0 0 C5.32307891 2.00900749 9.97247564 3.99551178 13 9 C13.5 12.5 13.5 12.5 13 16 C10.34327482 18.72984605 8.65799611 19.88800066 4.87890625 20.53125 C-3.32654584 20.45393125 -6.99014547 19.87619272 -12.875 14.1875 C-14.58516109 10.86218677 -14.58077477 8.67824022 -14 5 C-9.99669218 0.29611332 -6.22360255 -1.37816155 0 0 Z " fill="#117836" transform="translate(758,244)"/>
<path d="M0 0 C5.32307891 2.00900749 9.97247564 3.99551178 13 9 C13.5 12.5 13.5 12.5 13 16 C10.34327482 18.72984605 8.65799611 19.88800066 4.87890625 20.53125 C-3.32654584 20.45393125 -6.99014547 19.87619272 -12.875 14.1875 C-14.58516109 10.86218677 -14.58077477 8.67824022 -14 5 C-9.99669218 0.29611332 -6.22360255 -1.37816155 0 0 Z " fill="#117836" transform="translate(758,116)"/>
<path d="M0 0 C1.67578125 1.18359375 1.67578125 1.18359375 3.98828125 4.12109375 C4.13303538 8.17420947 3.41681005 10.39589117 1.36328125 13.87109375 C-3.23768296 18.22990195 -7.45826437 19.31341836 -13.63671875 19.62109375 C-17.5900519 19.50129578 -18.84327956 19.23122707 -22.26171875 16.99609375 C-24.01171875 14.12109375 -24.01171875 14.12109375 -24.13671875 11.18359375 C-22.3326546 6.27253022 -19.59157808 3.22332119 -15.32421875 0.24609375 C-10.24933536 -1.47745155 -5.04614654 -2.20462713 0 0 Z " fill="#127837" transform="translate(942.01171875,625.87890625)"/>
<path d="M0 0 C3.79756046 2.13472334 5.9280322 4.33498444 7.75 8.375 C7.8125 12.0625 7.8125 12.0625 6.75 15.375 C3.75048737 18.47449638 0.57539155 18.65117508 -3.5625 18.875 C-9.25307183 18.71372873 -13.01200557 17.14671142 -17.25 13.375 C-19.77158585 10.39494399 -20.26554515 9.1522573 -20.1875 5.25 C-19.10726999 1.93729464 -18.24873804 1.05076537 -15.25 -0.625 C-9.85269529 -2.42410157 -5.14951716 -2.31968904 0 0 Z " fill="#117837" transform="translate(1109.25,570.625)"/>
<path d="M0 0 C3.33204577 1.51110722 6.40087461 3.40087461 9 6 C9.375 9.25 9.375 9.25 9 13 C6.8272578 15.63016161 5.05326212 17.47336894 2 19 C-10.32415865 20.03836143 -10.32415865 20.03836143 -14.6875 17.1875 C-17.19189518 14.81847753 -18.80340847 13.06721114 -19.4375 9.625 C-18.80366448 5.82198689 -16.89715533 4.43624426 -14 2 C-9.49463978 -0.6844438 -5.11503426 -0.77987069 0 0 Z " fill="#127937" transform="translate(584,489)"/>
<path d="M0 0 C5.34608971 2.0176921 9.92618822 4.00626792 13 9 C13.65454929 12.84547708 13.29284835 14.50107319 11.3125 17.875 C6.12297229 21.20413098 0.99278241 20.82165193 -5 20 C-8.93916251 18.53857813 -12.08013605 15.7330688 -14 12 C-14.5625 8.5625 -14.5625 8.5625 -14 5 C-9.99669218 0.29611332 -6.22360255 -1.37816155 0 0 Z " fill="#117837" transform="translate(758,405)"/>
<path d="M0 0 C4.69950077 2.63172043 4.69950077 2.63172043 6.125 5.75 C6.19158088 8.87930139 5.94738605 10.83187348 3.81640625 13.2109375 C-1.35035083 17.66903713 -5.57356859 18.091182 -12.140625 18.0390625 C-15.92529655 17.63896865 -18.07057289 16.26679356 -20.875 13.75 C-22.875 10.75 -22.875 10.75 -22.8125 7.8125 C-21.45841579 3.38915824 -18.86766159 1.89393536 -14.9765625 -0.33984375 C-10.2339237 -2.39381186 -4.74728833 -1.84448782 0 0 Z " fill="#127937" transform="translate(1114.875,386.25)"/>
<path d="M0 0 C4.69950077 2.63172043 4.69950077 2.63172043 6.125 5.75 C6.19158088 8.87930139 5.94738605 10.83187348 3.81640625 13.2109375 C-1.35035083 17.66903713 -5.57356859 18.091182 -12.140625 18.0390625 C-15.92529655 17.63896865 -18.07057289 16.26679356 -20.875 13.75 C-22.875 10.75 -22.875 10.75 -22.8125 7.8125 C-21.45841579 3.38915824 -18.86766159 1.89393536 -14.9765625 -0.33984375 C-10.2339237 -2.39381186 -4.74728833 -1.84448782 0 0 Z " fill="#127937" transform="translate(1114.875,225.25)"/>
<path d="M0 0 C3.99593708 1.65481825 6.04198767 2.51415338 8.49609375 6.1953125 C9.16422321 12.31983252 9.16422321 12.31983252 6.68359375 15.5703125 C1.45034303 19.45787018 -5.2785431 18.7612546 -11.50390625 18.1953125 C-15.32470281 16.77132559 -17.2384518 14.59349418 -19.50390625 11.1953125 C-19.56723505 7.77555739 -19.45277153 5.32437771 -17.1875 2.62890625 C-11.83830861 -1.72739579 -6.45217339 -2.07355338 0 0 Z " fill="#127937" transform="translate(1280.50390625,171.8046875)"/>
<path d="M0 0 C4.69950077 2.63172043 4.69950077 2.63172043 6.125 5.75 C6.19158088 8.87930139 5.94738605 10.83187348 3.81640625 13.2109375 C-1.35035083 17.66903713 -5.57356859 18.091182 -12.140625 18.0390625 C-15.92529655 17.63896865 -18.07057289 16.26679356 -20.875 13.75 C-22.875 10.75 -22.875 10.75 -22.8125 7.8125 C-21.45841579 3.38915824 -18.86766159 1.89393536 -14.9765625 -0.33984375 C-10.2339237 -2.39381186 -4.74728833 -1.84448782 0 0 Z " fill="#127937" transform="translate(1114.875,97.25)"/>
<path d="M0 0 C1.41732422 -0.02126953 1.41732422 -0.02126953 2.86328125 -0.04296875 C7.22605081 0.31305256 9.88923193 1.43124604 13.0625 4.4375 C14.6875 7.1875 14.6875 7.1875 14.75 10.25 C13.21419179 14.496058 10.6331082 16.0342397 6.85546875 18.2734375 C2.65867959 20.04289455 -1.85539544 19.73497672 -6.3125 19.1875 C-9.11504781 17.98718398 -11.14689714 16.35310286 -13.3125 14.1875 C-14.12583512 7.21605611 -14.12583512 7.21605611 -12.04296875 4.58203125 C-7.90623249 1.14984861 -5.25774991 0.03557341 0 0 Z " fill="#127937" transform="translate(67.3125,545.8125)"/>
<path d="M0 0 C3.08197886 1.67048434 4.72187146 3.27030718 6.671875 6.1953125 C6.59458519 10.44625204 6.36492365 12.48353281 3.359375 15.5703125 C-1.49279593 18.5041833 -6.75134593 19.03365184 -12.328125 18.1953125 C-15.92983053 16.57575364 -19.51951738 14.81252774 -21.328125 11.1953125 C-21.91190566 6.77525891 -21.83781842 4.87975796 -19.140625 1.2578125 C-13.87493027 -2.52847276 -5.8997954 -2.03919103 0 0 Z " fill="#117836" transform="translate(942.328125,489.8046875)"/>
<path d="M0 0 C5.34409621 2.10927844 8.79401197 4.31271098 11.73046875 9.3046875 C11.79296875 12.9921875 11.79296875 12.9921875 10.73046875 16.3046875 C7.62515101 19.36727151 5.20561499 19.73668346 0.91796875 19.7421875 C-4.74424616 19.58356272 -7.8279414 18.82094613 -12.26953125 15.3046875 C-15.04039214 12.11819748 -16.22516594 10.41382018 -16.39453125 6.1796875 C-13.57483516 -1.0262025 -6.81925917 -2.08920505 0 0 Z " fill="#107836" transform="translate(1105.26953125,408.6953125)"/>
<path d="M0 0 C5.34409621 2.10927844 8.79401197 4.31271098 11.73046875 9.3046875 C11.79296875 12.9921875 11.79296875 12.9921875 10.73046875 16.3046875 C7.62515101 19.36727151 5.20561499 19.73668346 0.91796875 19.7421875 C-4.74424616 19.58356272 -7.8279414 18.82094613 -12.26953125 15.3046875 C-15.04039214 12.11819748 -16.22516594 10.41382018 -16.39453125 6.1796875 C-13.57483516 -1.0262025 -6.81925917 -2.08920505 0 0 Z " fill="#107836" transform="translate(1105.26953125,119.6953125)"/>
<path d="M0 0 C3.91616153 1.53549661 6.28565223 3.01225016 9.18359375 6.1171875 C10.90821061 10.11516295 10.88476775 12.17014502 9.55859375 16.3046875 C6.52649614 19.43785503 3.36004546 19.55860721 -0.81640625 19.7421875 C-7.14831067 19.56298266 -10.66316478 17.8140669 -15.37890625 13.5546875 C-16.99862193 10.12470136 -17.22463596 7.01552341 -16.44140625 3.3046875 C-12.19999769 -2.16809774 -6.16380359 -1.75545126 0 0 Z " fill="#107836" transform="translate(67.44140625,730.6953125)"/>
<path d="M0 0 C0.94488281 -0.01417969 1.88976563 -0.02835938 2.86328125 -0.04296875 C7.22605081 0.31305256 9.88923193 1.43124604 13.0625 4.4375 C14.6875 7.1875 14.6875 7.1875 14.75 10.25 C13.14931839 14.67541386 10.43338241 16.21756533 6.4375 18.4375 C0.95339734 19.93316436 -4.16467239 20.14591964 -9.25 17.375 C-12.3125 15.1875 -12.3125 15.1875 -14.3125 12.1875 C-14.3125 9.10376554 -14.10341401 7.05220191 -11.97265625 4.72265625 C-7.79249353 1.19660212 -5.36891852 0.03632557 0 0 Z " fill="#127937" transform="translate(1106.3125,706.8125)"/>
<path d="M0 0 C3.08197886 1.67048434 4.72187146 3.27030718 6.671875 6.1953125 C6.49274851 9.53900689 6.34556651 12.1670465 4.484375 15.0078125 C-0.57567254 18.32301606 -6.42309424 19.19936655 -12.328125 18.1953125 C-15.92865072 16.56477139 -19.51736013 14.81684224 -21.328125 11.1953125 C-21.91190566 6.77525891 -21.83781842 4.87975796 -19.140625 1.2578125 C-13.87493027 -2.52847276 -5.8997954 -2.03919103 0 0 Z " fill="#117837" transform="translate(942.328125,650.8046875)"/>
<path d="M0 0 C4.28097674 1.95314581 7.40033223 4.09608922 9.78515625 8.26953125 C10.28184852 11.74637715 10.21037379 13.52033843 8.47265625 16.58203125 C5.56405826 19.49062924 2.45916168 19.47790261 -1.46484375 19.58203125 C-7.91544482 19.52230346 -11.34598523 17.8607583 -16.15234375 13.51953125 C-17.77461889 10.08412508 -18.12661306 6.97739312 -17.21484375 3.26953125 C-12.38001658 -1.68926585 -6.36179814 -2.09815918 0 0 Z " fill="#117836" transform="translate(68.21484375,569.73046875)"/>
<path d="M0 0 C5.34409621 2.10927844 8.79401197 4.31271098 11.73046875 9.3046875 C11.79296875 12.9921875 11.79296875 12.9921875 10.73046875 16.3046875 C7.6479489 19.33077678 5.23306131 19.76061918 0.98046875 19.8046875 C-4.96554877 19.65222551 -8.86717616 18.31083063 -13.26953125 14.3046875 C-15.74223129 11.38240564 -16.25410461 10.06059277 -16.33203125 6.2421875 C-13.69057122 -1.06067259 -6.78940922 -2.08005997 0 0 Z " fill="#107836" transform="translate(66.26953125,408.6953125)"/>
<path d="M0 0 C3.6801411 1.56056616 7.17014004 3.34028007 9 7 C9.57579318 13.21856639 9.57579318 13.21856639 7.25 16.375 C2.43384216 19.85333622 -3.28064786 19.34465151 -9 19 C-13.91204388 17.90843469 -16.27777652 15.16340061 -19 11 C-19.125 7.875 -19.125 7.875 -18 5 C-12.39039925 -0.32192892 -7.54384532 -0.93284109 0 0 Z " fill="#117836" transform="translate(1280,332)"/>
<path d="M0 0 C4.66143068 1.61031242 7.50363332 3.7062493 10 8 C10.0625 11.0625 10.0625 11.0625 9 14 C3.99084034 18.75227968 0.55016607 19.34193044 -6.1640625 19.2890625 C-10.39126932 18.85819018 -12.60519515 17.52804617 -16 15 C-18.48836965 11.26744552 -18.54226552 9.41559065 -18 5 C-12.46978009 -0.53021991 -7.50211896 -0.58361604 0 0 Z " fill="#107836" transform="translate(939,167)"/>
<path d="M0 0 C4.66143068 1.61031242 7.50363332 3.7062493 10 8 C10.0625 11.0625 10.0625 11.0625 9 14 C3.99084034 18.75227968 0.55016607 19.34193044 -6.1640625 19.2890625 C-10.39126932 18.85819018 -12.60519515 17.52804617 -16 15 C-18.48836965 11.26744552 -18.54226552 9.41559065 -18 5 C-12.46978009 -0.53021991 -7.50211896 -0.58361604 0 0 Z " fill="#107836" transform="translate(939,39)"/>
<path d="M0 0 C3.6801411 1.56056616 7.17014004 3.34028007 9 7 C9.375 10.375 9.375 10.375 9 14 C4.96545905 18.14358259 1.33403422 19.16411252 -4.3125 19.3125 C-10.49522495 19.25532817 -13.53614769 17.3843732 -17.9375 13.125 C-19 11 -19 11 -19 8 C-17.76355565 4.29066696 -16.22289089 3.12239156 -13 1 C-9.02042323 -0.98978838 -4.32514725 -0.53483004 0 0 Z " fill="#117836" transform="translate(1280,493)"/>
<path d="M0 0 C3.54147126 1.91829693 4.67030815 3.10789264 6.0625 6.875 C5.9766193 11.16903504 4.85043603 12.80194982 2 16 C-3.04681288 19.83842106 -8.24254407 20.70144815 -14.49609375 20.44921875 C-17 20 -17 20 -20.25 17.875 C-22 15 -22 15 -22.125 12.0625 C-20.16449146 6.72556009 -17.56497515 3.90287028 -12.75 1.125 C-8.33317179 -0.20004846 -4.56729785 -0.76121631 0 0 Z " fill="#137938" transform="translate(940,464)"/>
<path d="M0 0 C3.54147126 1.91829693 4.67030815 3.10789264 6.0625 6.875 C5.9766193 11.16903504 4.85043603 12.80194982 2 16 C-3.04681288 19.83842106 -8.24254407 20.70144815 -14.49609375 20.44921875 C-17 20 -17 20 -20.25 17.875 C-22 15 -22 15 -22.125 12.0625 C-20.16449146 6.72556009 -17.56497515 3.90287028 -12.75 1.125 C-8.33317179 -0.20004846 -4.56729785 -0.76121631 0 0 Z " fill="#137938" transform="translate(940,303)"/>
<path d="M0 0 C2.91927604 1.3961755 4.72202996 2.72202996 7 5 C6.92209681 9.12886922 6.46989928 11.387707 3.9375 14.6875 C-0.70410717 18.34153117 -4.7654206 20.73488041 -10.6875 21.4375 C-14.5483164 20.92758085 -17.22630465 19.77369535 -20 17 C-20.70588235 9.94117647 -20.70588235 9.94117647 -17.9375 6.25 C-11.82623371 1.56903008 -7.89168187 -0.89099634 0 0 Z " fill="#137938" transform="translate(582,143)"/>
<path d="M0 0 C3.25 1.5625 3.25 1.5625 5 4 C5.83205699 8.49310777 5.39124599 10.38349117 2.9375 14.25 C-1.09669781 18.47630247 -5.80534505 20.13231615 -11.5625 20.5 C-14.83925483 20.37656061 -16.90645678 19.81691839 -19.5625 17.875 C-22 15 -22 15 -22.6875 12.0625 C-21.5817803 7.13702135 -18.74068017 4.24714267 -14.69921875 1.3515625 C-9.9792465 -1.01183894 -5.14960385 -0.6259187 0 0 Z " fill="#117836" transform="translate(242,469)"/>
<path d="M0 0 C4.69950077 2.63172043 4.69950077 2.63172043 6.125 5.75 C6.19158088 8.87930139 5.94738605 10.83187348 3.81640625 13.2109375 C-1.3516388 17.67014844 -5.57072262 18.08166173 -12.13671875 18.046875 C-16.45494863 17.57870742 -18.8199836 15.8050164 -21.875 12.75 C-22.16288934 9.82312505 -22.37450043 7.59715244 -21.875 4.75 C-15.88340615 -1.57446018 -8.10328988 -3.14841199 0 0 Z " fill="#117837" transform="translate(75.875,386.25)"/>
<path d="M0 0 C1.03769531 -0.02578125 2.07539063 -0.0515625 3.14453125 -0.078125 C7.45390991 0.38655768 10.03732856 2.09982856 13.0625 5.125 C14.1875 7.25 14.1875 7.25 14.1875 9.6875 C12.54610608 13.89357192 9.76009027 16.35744876 5.875 18.5625 C-0.83664243 20.27943179 -5.85697348 19.51970083 -11.8125 16.25 C-13.8125 14.4375 -13.8125 14.4375 -14.8125 12.25 C-14.87942767 9.10439972 -14.64382428 7.15382349 -12.46875 4.7890625 C-8.11818093 1.09960932 -5.60345363 0.08291177 0 0 Z " fill="#127937" transform="translate(400.8125,209.75)"/>
<path d="M0 0 C1.69576172 -0.03867188 1.69576172 -0.03867188 3.42578125 -0.078125 C7.02827832 0.28428189 8.82169627 1.07909027 11.6875 3.25 C13.6875 6.25 13.6875 6.25 13.625 9.125 C12.22174704 13.80250987 9.56948471 16.18184652 5.375 18.5625 C-1.33664243 20.27943179 -6.35697348 19.51970083 -12.3125 16.25 C-14.3125 14.4375 -14.3125 14.4375 -15.3125 12.25 C-15.37942767 9.10439972 -15.14382428 7.15382349 -12.96875 4.7890625 C-8.42717868 0.93763192 -5.85693022 0.07959588 0 0 Z " fill="#137938" transform="translate(401.3125,81.75)"/>
<path d="M0 0 C1.41732422 -0.02126953 1.41732422 -0.02126953 2.86328125 -0.04296875 C7.22605081 0.31305256 9.88923193 1.43124604 13.0625 4.4375 C14.6875 7.1875 14.6875 7.1875 14.75 10.25 C13.2123936 14.50102945 10.62401864 16.0612402 6.8203125 18.2734375 C2.36585605 20.18249026 -2.97498946 20.078781 -7.484375 18.359375 C-10.04616364 16.94086393 -11.97836395 15.85577209 -13.3125 13.1875 C-13.75 9.875 -13.75 9.875 -13.3125 6.1875 C-9.57285839 1.6654103 -5.69597028 0.03853836 0 0 Z " fill="#127937" transform="translate(67.3125,706.8125)"/>
<path d="M0 0 C3.25 1.5625 3.25 1.5625 5 4 C5.65523077 8.00418801 5.48201519 10.13638945 3.5 13.6875 C-0.96317704 17.81593876 -5.48884173 20.18998449 -11.625 20.5625 C-14.85959691 20.39992927 -16.93665691 19.78414239 -19.5625 17.875 C-22 15 -22 15 -22.6875 12.0625 C-21.5817803 7.13702135 -18.74068017 4.24714267 -14.69921875 1.3515625 C-9.9792465 -1.01183894 -5.14960385 -0.6259187 0 0 Z " fill="#117836" transform="translate(1281,469)"/>
<path d="M0 0 C1.99115535 1.50942421 3.3501579 2.79611851 4.6875 4.90625 C5 8.46875 5 8.46875 3.6875 11.90625 C0.51445128 15.5473 -2.93842653 17.67890544 -7.80078125 18.14453125 C-14.00499303 18.30757416 -17.61861798 18.10603917 -22.3125 13.90625 C-23.80355779 10.92413442 -23.82244661 9.22090295 -23.3125 5.90625 C-17.50451427 -0.83599617 -8.44450891 -3.99402448 0 0 Z " fill="#117837" transform="translate(769.3125,383.09375)"/>
<path d="M0 0 C1.8125 2.4375 1.8125 2.4375 2.375 5.875 C1.70786145 10.10021082 0.94200052 11.54271202 -2.1875 14.4375 C-7.54432958 18.13770282 -12.72221673 19.48426015 -19.1875 18.4375 C-23.72804054 16.35641892 -23.72804054 16.35641892 -25.1875 13.4375 C-25.74970861 9.31463685 -25.40488836 7.76358255 -23.0625 4.25 C-16.9438543 -2.2255667 -8.07037251 -3.95606495 0 0 Z " fill="#117836" transform="translate(1284.1875,309.5625)"/>
<path d="M0 0 C4.69950077 2.63172043 4.69950077 2.63172043 6.125 5.75 C6.19158088 8.87930139 5.94738605 10.83187348 3.81640625 13.2109375 C-1.3516388 17.67014844 -5.57072262 18.08166173 -12.13671875 18.046875 C-16.45494863 17.57870742 -18.8199836 15.8050164 -21.875 12.75 C-22.25 9.5 -22.25 9.5 -21.875 5.75 C-16.09996076 -1.46879905 -8.63137071 -3.35358989 0 0 Z " fill="#117836" transform="translate(75.875,225.25)"/>
<path d="M0 0 C1.99115535 1.50942421 3.3501579 2.79611851 4.6875 4.90625 C5 8.46875 5 8.46875 3.6875 11.90625 C0.51445128 15.5473 -2.93842653 17.67890544 -7.80078125 18.14453125 C-14.00499303 18.30757416 -17.61861798 18.10603917 -22.3125 13.90625 C-23.80355779 10.92413442 -23.82244661 9.22090295 -23.3125 5.90625 C-17.50451427 -0.83599617 -8.44450891 -3.99402448 0 0 Z " fill="#117837" transform="translate(769.3125,222.09375)"/>
<path d="M0 0 C4.69950077 2.63172043 4.69950077 2.63172043 6.125 5.75 C6.19158088 8.87930139 5.94738605 10.83187348 3.81640625 13.2109375 C-1.3516388 17.67014844 -5.57072262 18.08166173 -12.13671875 18.046875 C-16.45494863 17.57870742 -18.8199836 15.8050164 -21.875 12.75 C-22.25 9.5 -22.25 9.5 -21.875 5.75 C-16.09996076 -1.46879905 -8.63137071 -3.35358989 0 0 Z " fill="#117836" transform="translate(75.875,97.25)"/>
<path d="M0 0 C1.99115535 1.50942421 3.3501579 2.79611851 4.6875 4.90625 C5 8.46875 5 8.46875 3.6875 11.90625 C0.51445128 15.5473 -2.93842653 17.67890544 -7.80078125 18.14453125 C-14.00499303 18.30757416 -17.61861798 18.10603917 -22.3125 13.90625 C-23.80355779 10.92413442 -23.82244661 9.22090295 -23.3125 5.90625 C-17.50451427 -0.83599617 -8.44450891 -3.99402448 0 0 Z " fill="#117837" transform="translate(769.3125,94.09375)"/>
<path d="M0 0 C3.11175651 1.78032035 3.93115014 3.4157105 5.03515625 6.7890625 C4.91015625 10.3515625 4.91015625 10.3515625 3.34765625 13.1015625 C-1.6842132 17.74636507 -5.98222414 18.85647216 -12.68359375 18.64453125 C-15.99239424 18.24167405 -18.337984 17.20906783 -21.08984375 15.3515625 C-23.46343069 11.79118209 -23.82943756 10.54259411 -23.08984375 6.3515625 C-16.88788567 -0.64385758 -9.13391251 -2.83407379 0 0 Z " fill="#117837" transform="translate(769.08984375,704.6484375)"/>
<path d="M0 0 C4.75144914 2.60863874 4.75144914 2.60863874 6.1875 5.75 C6.25408088 8.87930139 6.00988605 10.83187348 3.87890625 13.2109375 C-0.5773617 17.05599663 -3.94557175 17.91408586 -9.6875 18 C-11.23050781 18.03867187 -11.23050781 18.03867187 -12.8046875 18.078125 C-16.22470687 17.70503198 -18.06275853 16.78027507 -20.8125 14.75 C-22.4292707 11.51645861 -22.28881929 9.32239465 -21.8125 5.75 C-16.15128485 -1.07988423 -8.33102093 -3.25458142 0 0 Z " fill="#127937" transform="translate(408.8125,693.25)"/>
<path d="M0 0 C3.11175651 1.78032035 3.93115014 3.4157105 5.03515625 6.7890625 C4.91015625 10.3515625 4.91015625 10.3515625 3.34765625 13.1015625 C-1.6842132 17.74636507 -5.98222414 18.85647216 -12.68359375 18.64453125 C-15.99239424 18.24167405 -18.337984 17.20906783 -21.08984375 15.3515625 C-23.46343069 11.79118209 -23.82943756 10.54259411 -23.08984375 6.3515625 C-16.88788567 -0.64385758 -9.13391251 -2.83407379 0 0 Z " fill="#117836" transform="translate(769.08984375,543.6484375)"/>
<path d="M0 0 C3.1875 1.5625 3.1875 1.5625 5 4 C5.83205699 8.49310777 5.39124599 10.38349117 2.9375 14.25 C-1.13343087 18.51478472 -5.8087806 20.14312414 -11.625 20.375 C-15.47153251 20.24371903 -17.94970506 19.47836464 -21 17 C-22.42662219 14.14675563 -22.31033868 12.16545451 -22 9 C-16.97631726 0.560213 -9.21796856 -1.37772411 0 0 Z " fill="#117836" transform="translate(242,308)"/>
<path d="M0 0 C1.8125 2.4375 1.8125 2.4375 2.375 5.875 C1.70260245 10.13351783 1.00853792 11.55327066 -2.1875 14.4375 C-7.81109348 17.81828508 -12.66538872 19.19841298 -19.1875 18.4375 C-23.75694444 16.29861111 -23.75694444 16.29861111 -25.1875 13.4375 C-25.74970861 9.31463685 -25.40488836 7.76358255 -23.0625 4.25 C-16.9438543 -2.2255667 -8.07037251 -3.95606495 0 0 Z " fill="#117836" transform="translate(1284.1875,148.5625)"/>
<path d="M0 0 C5.34409621 2.10927844 8.79401197 4.31271098 11.73046875 9.3046875 C11.79296875 12.9921875 11.79296875 12.9921875 10.73046875 16.3046875 C7.6479489 19.33077678 5.23306131 19.76061918 0.98046875 19.8046875 C-4.88756868 19.66838834 -8.91655278 18.26701406 -13.26953125 14.3046875 C-15.39798178 11.1120117 -15.81636959 9.06273527 -15.7109375 5.24609375 C-15.26953125 3.3046875 -15.26953125 3.3046875 -12.70703125 0.8046875 C-8.06375186 -1.22147078 -4.87690837 -1.49413028 0 0 Z " fill="#0F7735" transform="translate(66.26953125,119.6953125)"/>
<path d="M0 0 C1.8125 2.4375 1.8125 2.4375 2.375 5.875 C1.70260245 10.13351783 1.00853792 11.55327066 -2.1875 14.4375 C-7.81109348 17.81828508 -12.66538872 19.19841298 -19.1875 18.4375 C-23.75694444 16.29861111 -23.75694444 16.29861111 -25.1875 13.4375 C-25.74970861 9.31463685 -25.40488836 7.76358255 -23.0625 4.25 C-16.9438543 -2.2255667 -8.07037251 -3.95606495 0 0 Z " fill="#117836" transform="translate(1284.1875,20.5625)"/>
<path d="M0 0 C3.1875 1.5625 3.1875 1.5625 5 4 C5.82554957 8.4579677 5.37973809 10.3829256 3 14.25 C-1.11444612 18.58465591 -6.32644754 20.10959385 -12.1875 20.375 C-16.06615897 19.99349256 -17.96872803 19.38827489 -21 17 C-22.42662219 14.14675563 -22.31033868 12.16545451 -22 9 C-16.97631726 0.560213 -9.21796856 -1.37772411 0 0 Z " fill="#117836" transform="translate(242,147)"/>
<path d="M0 0 C3.1875 1.5625 3.1875 1.5625 5 4 C5.82554957 8.4579677 5.37973809 10.3829256 3 14.25 C-1.11444612 18.58465591 -6.32644754 20.10959385 -12.1875 20.375 C-16.06615897 19.99349256 -17.96872803 19.38827489 -21 17 C-22.42662219 14.14675563 -22.31033868 12.16545451 -22 9 C-16.97631726 0.560213 -9.21796856 -1.37772411 0 0 Z " fill="#117836" transform="translate(242,19)"/>
<path d="M0 0 C2.91927604 1.3961755 4.72202996 2.72202996 7 5 C7 9.98929 5.07859971 12.92527151 1.796875 16.44921875 C-1.87053072 19.61434934 -5.57529389 20.94489304 -10.40625 21.0546875 C-16.1776754 20.62370443 -16.1776754 20.62370443 -18.73046875 18.6875 C-20.54762597 16.27207871 -20.53439224 13.94144184 -20.41015625 10.9921875 C-19.5709804 6.91619054 -16.55796463 5.1533476 -13.390625 2.80859375 C-8.82547684 -0.19644644 -5.41638298 -0.61152711 0 0 Z " fill="#127938" transform="translate(582,15)"/>
<path d="M0 0 C3.25 1.5625 3.25 1.5625 5 4 C5.6499352 7.97182623 5.46360007 10.13326943 3.5625 13.6875 C-0.90722378 17.72115317 -6.13404551 20.14421908 -12.1875 20.5625 C-17.18521201 19.82513265 -18.69929488 18.79581089 -22 15 C-22.6875 12.0625 -22.6875 12.0625 -22 9 C-16.10811148 0.41467672 -10.0041671 -1.21597611 0 0 Z " fill="#117836" transform="translate(1281,630)"/>
<path d="M0 0 C1.8125 2.4375 1.8125 2.4375 2.375 5.875 C1.70260245 10.13351783 1.00853792 11.55327066 -2.1875 14.4375 C-7.75757077 17.78610836 -12.72433031 19.39108241 -19.1875 18.4375 C-21.95302915 17.0517871 -23.07317199 15.86897721 -25.1875 13.4375 C-25.875 10.5 -25.875 10.5 -25.1875 7.4375 C-19.40827876 -1.23133186 -9.7399533 -4.77448691 0 0 Z " fill="#117836" transform="translate(245.1875,631.5625)"/>
<path d="M0 0 C2.0625 1.875 2.0625 1.875 3.125 4.6875 C3.04196897 8.92208259 1.73809839 10.63611773 -0.9375 13.875 C-6.23705342 18.65752382 -10.37250051 19.24044311 -17.328125 19.1484375 C-19.9375 18.875 -19.9375 18.875 -22.625 17.3125 C-24.49205156 13.84511853 -24.54105074 11.76454919 -23.9375 7.875 C-21.05601564 3.19258792 -18.28505308 1.0016772 -13.0546875 -0.65625 C-8.42579111 -1.68109791 -4.50921608 -1.72693382 0 0 Z " fill="#117836" transform="translate(585.9375,466.125)"/>
<path d="M0 0 C2.0625 1.875 2.0625 1.875 3.125 4.6875 C3.04196897 8.92208259 1.73809839 10.63611773 -0.9375 13.875 C-6.23705342 18.65752382 -10.37250051 19.24044311 -17.328125 19.1484375 C-19.9375 18.875 -19.9375 18.875 -22.625 17.3125 C-24.49205156 13.84511853 -24.54105074 11.76454919 -23.9375 7.875 C-21.05601564 3.19258792 -18.28505308 1.0016772 -13.0546875 -0.65625 C-8.42579111 -1.68109791 -4.50921608 -1.72693382 0 0 Z " fill="#117836" transform="translate(585.9375,305.125)"/>
<path d="M0 0 C1.11246094 -0.01675781 2.22492188 -0.03351562 3.37109375 -0.05078125 C6.91074621 0.35214125 8.73449023 1.18276424 11.5625 3.3125 C13.5625 6.3125 13.5625 6.3125 13.5 9.1875 C12.33318146 13.07689513 10.65529109 14.73517409 7.5625 17.3125 C2.0843989 19.1385337 -3.73487023 18.90610708 -9.4375 18.3125 C-12.9063542 16.02174723 -13.86385541 14.55539661 -15.5625 10.875 C-15.36597498 6.84623716 -13.21206952 5.08706952 -10.4375 2.3125 C-7.01220438 0.07926762 -4.03925793 0.01400899 0 0 Z " fill="#117836" transform="translate(401.4375,531.6875)"/>
<path d="M0 0 C1.11246094 -0.01675781 2.22492188 -0.03351563 3.37109375 -0.05078125 C6.91074621 0.35214125 8.73449023 1.18276424 11.5625 3.3125 C13.5625 6.3125 13.5625 6.3125 13.5 9.1875 C12.33318146 13.07689513 10.65529109 14.73517409 7.5625 17.3125 C2.0843989 19.1385337 -3.73487023 18.90610708 -9.4375 18.3125 C-12.9063542 16.02174723 -13.86385541 14.55539661 -15.5625 10.875 C-15.36597498 6.84623716 -13.21206952 5.08706952 -10.4375 2.3125 C-7.01220438 0.07926762 -4.03925793 0.01400899 0 0 Z " fill="#117836" transform="translate(401.4375,370.6875)"/>
<path d="M0 0 C2.0625 1.875 2.0625 1.875 3.125 4.6875 C3.04136752 8.9527564 1.80389794 10.64155628 -0.9375 13.875 C-7.1290746 18.55027061 -12.30020296 19.74997675 -19.9375 18.875 C-22.5625 17.3125 -22.5625 17.3125 -23.9375 14.875 C-24.67872074 10.42767558 -24.30977978 8.47995464 -21.9375 4.625 C-16.30199539 -1.31212317 -7.54780244 -2.89064774 0 0 Z " fill="#117836" transform="translate(585.9375,627.125)"/>
<path d="M0 0 C4.93800301 2.26981377 9.21952049 5.25001417 12 10 C12.5 13.0625 12.5 13.0625 12 16 C10.1329009 18.30275556 8.64352259 19.67823871 6 21 C0.02091566 21.05979084 -4.38199863 19.97362909 -9 16 C-11.30100067 13.15402549 -12.7576396 10.99367763 -13.625 7.4375 C-12.83534427 4.35784266 -11.30472319 2.82725481 -8.76953125 0.95703125 C-5.61298314 -0.75015261 -3.49796971 -0.60309823 0 0 Z " fill="#147A39" transform="translate(735,579)"/>
<path d="M0 0 C7.80732108 3.18122985 7.80732108 3.18122985 9.59375 7.23046875 C10.03125 10.23046875 10.03125 10.23046875 9.59375 13.23046875 C7.22571329 16.15104736 5.2669901 18.04387342 1.45703125 18.46875 C-4.79923967 18.65078545 -8.33271815 17.95796154 -13.40625 14.23046875 C-15.83654049 11.87857473 -16.33061452 10.62545402 -16.96875 7.29296875 C-16.32177182 3.77053197 -15.13903472 2.2475776 -12.23828125 0.1484375 C-8.0469577 -1.95169264 -4.26168493 -1.36290898 0 0 Z " fill="#137938" transform="translate(1259.40625,511.76953125)"/>
<path d="M0 0 C4.1806774 1.33700235 7.79834803 2.90758912 11.0625 5.875 C12.36536831 8.82816816 12.46561078 10.80724038 12 14 C9.63196329 16.92057861 7.6732401 18.81340467 3.86328125 19.23828125 C-2.37938947 19.41992098 -5.9748558 18.79449664 -11 15 C-13.02627617 12.45081385 -13.85256368 10.65527251 -14.5625 7.5 C-13.85644419 4.36197417 -12.39505753 2.84988449 -9.83203125 0.953125 C-6.54949272 -0.75463492 -3.51551772 -0.69418738 0 0 Z " fill="#137938" transform="translate(218,511)"/>
<path d="M0 0 C7.89025568 3.22260038 7.89025568 3.22260038 9.66015625 7.234375 C10.32694205 11.15174156 9.97656457 12.73248594 7.84765625 16.109375 C3.17682104 19.22326514 -0.88227169 19.07881308 -6.33984375 18.234375 C-10.16704696 16.9356129 -12.7195119 14.97101908 -15.33984375 11.859375 C-16.65479379 8.40763114 -16.59771888 6.71202977 -15.33984375 3.234375 C-10.49534033 -1.14874714 -6.2223742 -2.03603563 0 0 Z " fill="#137938" transform="translate(220.33984375,189.765625)"/>
<path d="M0 0 C7.89025568 3.22260038 7.89025568 3.22260038 9.66015625 7.234375 C10.32694205 11.15174156 9.97656457 12.73248594 7.84765625 16.109375 C3.17682104 19.22326514 -0.88227169 19.07881308 -6.33984375 18.234375 C-10.16704696 16.9356129 -12.7195119 14.97101908 -15.33984375 11.859375 C-16.65479379 8.40763114 -16.59771888 6.71202977 -15.33984375 3.234375 C-10.49534033 -1.14874714 -6.2223742 -2.03603563 0 0 Z " fill="#137938" transform="translate(220.33984375,61.765625)"/>
<path d="M0 0 C3.67628705 1.54867211 5.76660158 3.25891116 7.75 6.8125 C8.25 9.875 8.25 9.875 7.75 12.8125 C5.51793569 15.66030619 4.20007001 16.66247666 0.75 17.8125 C-4.0066877 18.36518181 -7.34965486 18.29601869 -11.625 16 C-12.924375 14.9171875 -12.924375 14.9171875 -14.25 13.8125 C-14.848125 13.35875 -15.44625 12.905 -16.0625 12.4375 C-17.92297885 9.89158158 -18.18739161 7.94291969 -18.25 4.8125 C-13.68132514 -2.27682306 -7.58757218 -2.51498179 0 0 Z " fill="#137938" transform="translate(222.25,673.1875)"/>
<path d="M0 0 C4.93800301 2.26981377 9.21952049 5.25001417 12 10 C12.57579666 13.52675456 12.41496376 15.2491132 10.6875 18.375 C6.3256692 21.01238607 1.95474756 20.70473913 -3 20 C-7.873387 17.69621706 -10.48191114 14.74562901 -13 10 C-13.625 7.4375 -13.625 7.4375 -13 5 C-8.92969404 0.53259102 -6.21393285 -1.07136773 0 0 Z " fill="#137938" transform="translate(735,740)"/>
<path d="M0 0 C3.67628705 1.54867211 5.76660158 3.25891116 7.75 6.8125 C8.25 9.875 8.25 9.875 7.75 12.8125 C5.51793569 15.66030619 4.20007001 16.66247666 0.75 17.8125 C-4.0066877 18.36518181 -7.34965486 18.29601869 -11.625 16 C-12.924375 14.9171875 -12.924375 14.9171875 -14.25 13.8125 C-14.848125 13.379375 -15.44625 12.94625 -16.0625 12.5 C-18.11357388 9.58531606 -18.31071118 7.33374846 -18.25 3.8125 C-13.08272886 -2.41472419 -7.33914555 -2.35998546 0 0 Z " fill="#127937" transform="translate(1261.25,673.1875)"/>
<path d="M0 0 C5.5101485 2.35006333 9.2891385 5.57827701 12 11 C12.5625 13.625 12.5625 13.625 12 16 C9.81624612 18.69329645 8.09196 19.82012639 4.65234375 20.38671875 C-1.04766446 20.63604038 -4.63702231 19.94745601 -9 16 C-11.55898686 12.90227907 -12.8501085 10.83273055 -13.5625 6.875 C-13 4 -13 4 -11 1.625 C-7.20374524 -0.43130466 -4.16941577 -0.88302544 0 0 Z " fill="#127937" transform="translate(376,118)"/>
<path d="M0 0 C5.17871136 1.81351877 9.18194317 4.15294225 12 9 C13.0625 12.5625 13.0625 12.5625 13 16 C10.86300538 18.87388932 9.18135867 19.80964819 5.6484375 20.37890625 C-0.04896935 20.64570325 -3.64101771 19.94384112 -8 16 C-10.55898686 12.90227907 -11.8501085 10.83273055 -12.5625 6.875 C-12 4 -12 4 -9.9375 1.625 C-6.1925096 -0.44669682 -4.24045609 -0.5749771 0 0 Z " fill="#117837" transform="translate(375,407)"/>
<path d="M0 0 C7.89025568 3.22260038 7.89025568 3.22260038 9.66015625 7.234375 C10.09765625 10.234375 10.09765625 10.234375 9.66015625 13.234375 C7.42809194 16.08218119 6.11022626 17.08435166 2.66015625 18.234375 C-3.86671891 19.00596295 -8.04479758 18.15270916 -13.33984375 14.234375 C-15.77075558 11.3476672 -16.3253512 9.94450983 -16.40234375 6.171875 C-13.75834723 -1.13799773 -6.77815009 -2.21789218 0 0 Z " fill="#137938" transform="translate(220.33984375,350.765625)"/>
<path d="M0 0 C5.17871136 1.81351877 9.18194317 4.15294225 12 9 C13.0625 12.5625 13.0625 12.5625 13 16 C10.86300538 18.87388932 9.18135867 19.80964819 5.6484375 20.37890625 C-0.04896935 20.64570325 -3.64101771 19.94384112 -8 16 C-10.55898686 12.90227907 -11.8501085 10.83273055 -12.5625 6.875 C-12 4 -12 4 -9.9375 1.625 C-6.1925096 -0.44669682 -4.24045609 -0.5749771 0 0 Z " fill="#117837" transform="translate(375,246)"/>
<path d="M0 0 C2.70797214 1.74083923 4.15594864 2.83101125 5.625 5.6875 C6.2917858 9.60486656 5.94140832 11.18561094 3.8125 14.5625 C-0.85833521 17.67639014 -4.91742794 17.53193808 -10.375 16.6875 C-14.20220321 15.3887379 -16.75466815 13.42414408 -19.375 10.3125 C-20.66225108 6.93346591 -20.49162709 5.11182308 -19.375 1.6875 C-13.72247332 -3.77660912 -6.80750447 -2.64736285 0 0 Z " fill="#127937" transform="translate(1263.375,191.3125)"/>
<path d="M0 0 C2.70797214 1.74083923 4.15594864 2.83101125 5.625 5.6875 C6.2917858 9.60486656 5.94140832 11.18561094 3.8125 14.5625 C-0.85833521 17.67639014 -4.91742794 17.53193808 -10.375 16.6875 C-14.20220321 15.3887379 -16.75466815 13.42414408 -19.375 10.3125 C-20.66225108 6.93346591 -20.49162709 5.11182308 -19.375 1.6875 C-13.72247332 -3.77660912 -6.80750447 -2.64736285 0 0 Z " fill="#127937" transform="translate(1263.375,63.3125)"/>
<path d="M0 0 C5.86008057 1.78782119 8.68180273 4.02270409 12 9 C13 12.125 13 12.125 13 15 C11.28784522 18.16748634 10.46264391 18.84578536 7 20 C0.15531097 20.69607007 -3.63309762 19.26884649 -9 15 C-11.75004128 12.4218363 -11.9622987 11.30161043 -12.4375 7.5 C-12 4 -12 4 -10.5 1.5625 C-7.00121114 -0.62424304 -3.95622912 -0.60010217 0 0 Z " fill="#117836" transform="translate(375,729)"/>
<path d="M0 0 C4.77739159 1.68879438 8.45081008 4.61539333 11 9 C11.5625 12.5625 11.5625 12.5625 11 16 C9.125 18.5 9.125 18.5 6 20 C1.03428657 20.33049673 -2.93085821 19.5345709 -7.375 17.3125 C-10.98703699 14.13046741 -13.58264448 11.19111651 -14.5 6.375 C-14 4 -14 4 -12.625 1.6875 C-8.54300839 -0.93663746 -4.71392391 -0.71907314 0 0 Z " fill="#127837" transform="translate(736,258)"/>
<path d="M0 0 C4.77739159 1.68879438 8.45081008 4.61539333 11 9 C11.5625 12.5625 11.5625 12.5625 11 16 C9.125 18.5 9.125 18.5 6 20 C1.03428657 20.33049673 -2.93085821 19.5345709 -7.375 17.3125 C-10.98703699 14.13046741 -13.58264448 11.19111651 -14.5 6.375 C-14 4 -14 4 -12.625 1.6875 C-8.54300839 -0.93663746 -4.71392391 -0.71907314 0 0 Z " fill="#127937" transform="translate(736,130)"/>
<path d="M0 0 C5.17871136 1.81351877 9.18194317 4.15294225 12 9 C13.0625 12.5625 13.0625 12.5625 13 16 C10.91827973 18.70623636 9.29972674 19.73857489 5.94140625 20.4140625 C-0.22575612 20.82021877 -4.27683632 18.83618459 -9 15 C-11.73652656 12.43450635 -11.96096612 11.27323716 -12.5 7.5 C-12 4 -12 4 -9.9375 1.5625 C-6.19388982 -0.42878201 -4.2044238 -0.57009136 0 0 Z " fill="#127937" transform="translate(375,568)"/>
<path d="M0 0 C2.1875 1.6875 2.1875 1.6875 4.1875 4.6875 C4.1875 7.5625 4.1875 7.5625 3.1875 10.6875 C-1.2654492 15.04149477 -4.50024455 17.50102779 -10.6875 18 C-14.65184158 17.9036702 -17.43509788 16.8292672 -20.8125 14.6875 C-22.23912219 11.83425563 -22.12283868 9.85295451 -21.8125 6.6875 C-19.3777733 2.32528132 -16.49122454 0.68534255 -11.8984375 -0.80859375 C-7.48561141 -1.87461354 -4.12757576 -1.92620202 0 0 Z " fill="#147A39" transform="translate(1095.8125,207.3125)"/>
<path d="M0 0 C2.75 1.5625 2.75 1.5625 4 4 C4.0809409 8.37080842 3.26872468 10.58900931 0.875 14.25 C-3.2939658 18.23770641 -6.9430304 19.71628006 -12.625 20.5 C-16 20 -16 20 -19 17.9375 C-21 15 -21 15 -21.0625 11.5 C-19.63725995 6.80509159 -17.5724953 4.38188981 -13.9375 1.1875 C-9.33924487 -0.67136909 -4.88558844 -0.66041748 0 0 Z " fill="#147A39" transform="translate(917,130)"/>
<path d="M0 0 C2.1875 1.6875 2.1875 1.6875 4.1875 4.6875 C4.1875 7.5625 4.1875 7.5625 3.1875 10.6875 C-1.29605235 15.07141786 -4.52196446 17.50571147 -10.75 18 C-15.58242436 17.88301394 -18.42706064 16.07293936 -21.8125 12.6875 C-22.29329394 9.08154542 -22.09573282 7.19495881 -20.3125 4 C-14.8096101 -1.09017316 -7.02705752 -3.27929351 0 0 Z " fill="#147A38" transform="translate(1095.8125,368.3125)"/>
<path d="M0 0 C2.70797214 1.74083923 4.15594864 2.83101125 5.625 5.6875 C6.1875 8.625 6.1875 8.625 5.625 11.6875 C2.96130316 14.91197513 1.35210513 16.36136356 -2.75390625 17.13671875 C-8.77192134 17.40316522 -12.57836524 16.30944869 -17.375 12.6875 C-19.85540606 9.74201781 -20.38964971 8.41998553 -20.3125 4.5625 C-19.23226999 1.24979464 -18.37373804 0.36326537 -15.375 -1.3125 C-10.12914296 -3.06111901 -5.07713743 -1.97444233 0 0 Z " fill="#127937" transform="translate(1263.375,352.3125)"/>
<path d="M0 0 C4.06263963 1.48915261 6.56564615 3.34846922 9 7 C9.36017958 10.38568806 9.38185838 12.3272019 7.6875 15.3125 C4.76340946 18.23659054 1.63164141 18.20885036 -2.3125 18.3125 C-7.35608995 18.26586178 -10.1547314 17.46074174 -14 14 C-16.11418944 11.81533758 -16.8805064 10.51780562 -17.5625 7.5625 C-16.87871373 4.44747364 -15.58525906 2.8597556 -13.0390625 0.953125 C-8.83962476 -1.00983057 -4.49230149 -0.71616401 0 0 Z " fill="#117836" transform="translate(565,187)"/>
<path d="M0 0 C3.90041818 1.95020909 6.93692592 4.1030823 9 8 C9.5 11 9.5 11 9 14 C5.79426886 17.12136979 3.33253786 18.86674621 -1.125 19.3125 C-6.6815713 18.86438941 -10.86959818 16.93067665 -15 13.1875 C-16.50471738 9.89593073 -16.50943968 7.56607775 -16 4 C-12.05325146 -1.30769632 -6.04091746 -0.88706571 0 0 Z " fill="#127937" transform="translate(919,185)"/>
<path d="M0 0 C2.1875 1.6875 2.1875 1.6875 4.1875 4.6875 C4.1875 7.5625 4.1875 7.5625 3.1875 10.6875 C-1.29605235 15.07141786 -4.52196446 17.50571147 -10.75 18 C-15.58242436 17.88301394 -18.42706064 16.07293936 -21.8125 12.6875 C-22.29329394 9.08154542 -22.09573282 7.19495881 -20.3125 4 C-14.8096101 -1.09017316 -7.02705752 -3.27929351 0 0 Z " fill="#147A38" transform="translate(1095.8125,79.3125)"/>
<path d="M0 0 C4.06263963 1.48915261 6.56564615 3.34846922 9 7 C9.36017958 10.38568806 9.38185838 12.3272019 7.6875 15.3125 C4.76340946 18.23659054 1.63164141 18.20885036 -2.3125 18.3125 C-7.35608995 18.26586178 -10.1547314 17.46074174 -14 14 C-16.11418944 11.81533758 -16.8805064 10.51780562 -17.5625 7.5625 C-16.87871373 4.44747364 -15.58525906 2.8597556 -13.0390625 0.953125 C-8.83962476 -1.00983057 -4.49230149 -0.71616401 0 0 Z " fill="#117836" transform="translate(565,59)"/>
<path d="M0 0 C3 2.0625 3 2.0625 5 5 C5.07232481 9.05018954 4.42646866 11.30501404 2.3125 14.75 C-1.8207904 18.77157985 -5.41908564 20.18576848 -11.125 20.4375 C-14.39842835 20.31900486 -15.80618056 20.11268572 -18.6875 18.4375 C-20.60504284 14.876349 -20.0787445 12.84302727 -19 9 C-15.10109448 2.29388251 -7.65662584 -1.30018175 0 0 Z " fill="#137938" transform="translate(916,451)"/>
<path d="M0 0 C2.1875 1.625 2.1875 1.625 4.1875 3.625 C4.1875 6.9375 4.1875 6.9375 3.1875 10.625 C0.375 13.4375 0.375 13.4375 -2.8125 15.625 C-3.43125 16.058125 -4.05 16.49125 -4.6875 16.9375 C-9.2910083 18.42687033 -13.368174 18.28436622 -17.6875 16.3125 C-20.28966133 14.24607777 -21.64152622 12.55314338 -22.25 9.25 C-21.60317708 5.36906251 -19.83411866 4.06801083 -16.8125 1.625 C-11.12358741 -1.43015676 -6.02722932 -2.94664545 0 0 Z " fill="#137A38" transform="translate(56.8125,368.375)"/>
<path d="M0 0 C2.1875 1.625 2.1875 1.625 4.1875 3.625 C4.1875 6.9375 4.1875 6.9375 3.1875 10.625 C0.375 13.4375 0.375 13.4375 -2.8125 15.625 C-3.43125 16.058125 -4.05 16.49125 -4.6875 16.9375 C-9.31426505 18.43439458 -13.38163192 18.30932821 -17.6875 16.25 C-19.8125 14.625 -19.8125 14.625 -21.8125 12.625 C-21.73247483 8.38366625 -21.24869943 6.18582784 -18.625 2.8125 C-13.11519465 -1.47290416 -6.49731057 -3.17646294 0 0 Z " fill="#137938" transform="translate(56.8125,207.375)"/>
<path d="M0 0 C2.1875 1.625 2.1875 1.625 4.1875 3.625 C4.1875 6.9375 4.1875 6.9375 3.1875 10.625 C0.375 13.4375 0.375 13.4375 -2.8125 15.625 C-3.43125 16.058125 -4.05 16.49125 -4.6875 16.9375 C-9.2910083 18.42687033 -13.368174 18.28436622 -17.6875 16.3125 C-20.28966133 14.24607777 -21.64152622 12.55314338 -22.25 9.25 C-21.60317708 5.36906251 -19.83411866 4.06801083 -16.8125 1.625 C-11.12358741 -1.43015676 -6.02722932 -2.94664545 0 0 Z " fill="#137A38" transform="translate(56.8125,79.375)"/>
<path d="M0 0 C3.84674352 2.62277967 7.12544317 5.21559673 8.234375 9.9375 C8.375 12.0625 8.375 12.0625 7.75 15.875 C4.94255953 18.68244047 2.86118594 18.86041824 -1.0625 19.375 C-5.98147523 19.1700427 -9.59462087 17.07660793 -13.25 13.875 C-15.95184276 9.90666845 -16.99484536 6.66329162 -16.25 1.875 C-12.44826705 -3.0837821 -5.2393165 -1.81360956 0 0 Z " fill="#117836" transform="translate(1084.25,583.125)"/>
<path d="M0 0 C3.74454098 2.27283549 7.02086346 5.04172692 9 9 C9.49425287 14.18965517 9.49425287 14.18965517 9 17 C6.19255953 19.80744047 4.11118594 19.98541824 0.1875 20.5 C-4.73804332 20.29476903 -8.3339451 18.19518547 -12 15 C-14.5763024 11.40879059 -15.02250545 9.67516359 -14.875 5.25 C-13.00083812 -1.71117271 -6.03111346 -1.10775553 0 0 Z " fill="#117836" transform="translate(44,582)"/>
<path d="M0 0 C2.5 2.5 2.5 2.5 3.1875 6.4375 C2.92771991 9.75897404 2.4418219 10.57646265 0.3125 13.375 C-4.73052195 17.18528325 -8.84770921 18.02484926 -15.11328125 17.875 C-17.5 17.5 -17.5 17.5 -20.6875 15.4375 C-22.5 12.5 -22.5 12.5 -22.75 9.0625 C-21.11954526 4.41570398 -18.57626147 2.15223999 -14.5 -0.5 C-9.1743199 -2.2752267 -5.07599409 -2.17542604 0 0 Z " fill="#127937" transform="translate(749.5,526.5)"/>
<path d="M0 0 C4.77800353 1.67680879 8.45398167 4.62084847 11 9 C11.5625 12.5625 11.5625 12.5625 11 16 C8.36558587 19.11339852 6.71414217 19.89220495 2.6875 20.5 C-3.07647642 19.71844388 -7.18907058 17.62983648 -11.5 13.75 C-13.64419142 9.8189824 -13.50270908 7.45256611 -13 3 C-9.78164849 -1.48525814 -4.99811166 -0.68363229 0 0 Z " fill="#127937" transform="translate(736,419)"/>
<path d="M0 0 C2.75 1.5625 2.75 1.5625 4 4 C4 7.90515099 3.39927831 10.3132413 1.4375 13.6875 C-2.77496205 17.68393836 -6.95044647 19.68735624 -12.6875 20.5625 C-16 20 -16 20 -19 17.9375 C-21 15 -21 15 -21.0625 11.5 C-19.63725995 6.80509159 -17.5724953 4.38188981 -13.9375 1.1875 C-9.33924487 -0.67136909 -4.88558844 -0.66041748 0 0 Z " fill="#147A39" transform="translate(917,291)"/>
<path d="M0 0 C2.4375 2.4375 2.4375 2.4375 3.1875 5.8125 C2.20398103 10.56617503 0.2497215 12.58289395 -3.5625 15.4375 C-7.86391929 17.99510066 -12.68311537 18.13455495 -17.5625 17.4375 C-20.625 15.875 -20.625 15.875 -22.5625 13.4375 C-23.23231908 9.34416118 -23.05397712 7.26923051 -20.9375 3.6875 C-14.70224029 -2.21958815 -7.79513864 -3.41892046 0 0 Z " fill="#127937" transform="translate(390.5625,193.5625)"/>
<path d="M0 0 C2.4375 2.4375 2.4375 2.4375 3.1875 5.8125 C2.20398103 10.56617503 0.2497215 12.58289395 -3.5625 15.4375 C-7.86391929 17.99510066 -12.68311537 18.13455495 -17.5625 17.4375 C-20.625 15.875 -20.625 15.875 -22.5625 13.4375 C-23.23231908 9.34416118 -23.05397712 7.26923051 -20.9375 3.6875 C-14.70224029 -2.21958815 -7.79513864 -3.41892046 0 0 Z " fill="#127937" transform="translate(390.5625,65.5625)"/>
<path d="M0 0 C2.75 1.5625 2.75 1.5625 4 4 C4 7.90515099 3.39927831 10.3132413 1.4375 13.6875 C-2.77496205 17.68393836 -6.95044647 19.68735624 -12.6875 20.5625 C-16 20 -16 20 -19 17.9375 C-21 15 -21 15 -21.0625 11.5 C-19.63725995 6.80509159 -17.5724953 4.38188981 -13.9375 1.1875 C-9.33924487 -0.67136909 -4.88558844 -0.66041748 0 0 Z " fill="#147A39" transform="translate(917,2)"/>
<path d="M0 0 C2.5 2.5 2.5 2.5 3.1875 6.4375 C2.92771991 9.75897404 2.4418219 10.57646265 0.3125 13.375 C-5.1054743 17.46858058 -9.82188901 18.25007768 -16.5 17.5 C-19.5 16.4375 -19.5 16.4375 -21.5 14.5 C-22.6875 11.25 -22.6875 11.25 -22.5 7.5 C-20.39794846 3.83431714 -17.72531199 1.2416362 -14.125 -0.9375 C-8.72925907 -2.0937302 -5.02496048 -2.15355449 0 0 Z " fill="#137938" transform="translate(749.5,687.5)"/>
<path d="M0 0 C2.4375 2.4375 2.4375 2.4375 3.1875 5.8125 C2.20477338 10.56234531 0.25130297 12.58852546 -3.5625 15.4375 C-7.64709403 17.80226496 -11.94093581 18.07238155 -16.5625 17.4375 C-18.92543002 16.28117254 -20.71233755 15.28766245 -22.5625 13.4375 C-22.94346179 9.47549737 -22.98604404 7.15426684 -20.9375 3.6875 C-14.70224029 -2.21958815 -7.79513864 -3.41892046 0 0 Z " fill="#137938" transform="translate(390.5625,515.5625)"/>
<path d="M0 0 C3.90934445 2.07262658 6.81931763 4.43543653 9 8.2734375 C9.62876215 11.29861387 9.46070997 13.0996577 9 16.2734375 C6.19255953 19.08087797 4.11118594 19.25885574 0.1875 19.7734375 C-4.73147523 19.5684802 -8.34462087 17.47504543 -12 14.2734375 C-14.70184276 10.30510595 -15.74484536 7.06172912 -15 2.2734375 C-11.55608328 -2.21862778 -4.91938275 -1.78711952 0 0 Z " fill="#117836" transform="translate(1083,421.7265625)"/>
<path d="M0 0 C2.4375 2.4375 2.4375 2.4375 3.1875 5.8125 C2.20477338 10.56234531 0.25130297 12.58852546 -3.5625 15.4375 C-7.64709403 17.80226496 -11.94093581 18.07238155 -16.5625 17.4375 C-18.92543002 16.28117254 -20.71233755 15.28766245 -22.5625 13.4375 C-22.94346179 9.47549737 -22.98604404 7.15426684 -20.9375 3.6875 C-14.70224029 -2.21958815 -7.79513864 -3.41892046 0 0 Z " fill="#137938" transform="translate(390.5625,354.5625)"/>
<path d="M0 0 C1.5625 1.125 1.5625 1.125 2.5625 3.125 C2.82265644 7.18994443 2.65837489 10.79566805 0.00390625 14.015625 C-4.07034396 17.50541936 -6.88587539 19.27838354 -12.3125 19.375 C-13.17617187 19.40078125 -14.03984375 19.4265625 -14.9296875 19.453125 C-17.95241496 19.05762795 -19.28093105 18.25695058 -21.4375 16.125 C-22.06257403 11.98388453 -21.72104898 9.70343992 -19.875 5.9375 C-14.46663946 -0.30291601 -8.15057554 -2.92584763 0 0 Z " fill="#117836" transform="translate(219.4375,134.875)"/>
<path d="M0 0 C4.62389403 0.513766 7.48178633 1.93590907 10.79296875 5.13671875 C12.32515992 8.11597936 12.40018634 10.01758386 11.91796875 13.32421875 C9.68590444 16.17202494 8.36803876 17.17419541 4.91796875 18.32421875 C-0.91448185 18.71304879 -4.88017928 18.32528719 -10.08203125 15.32421875 C-12.65072159 12.37022486 -14.08203125 10.6596434 -14.08203125 6.69921875 C-11.16340141 -0.23252713 -6.8019848 -0.24026499 0 0 Z " fill="#107835" transform="translate(562.08203125,669.67578125)"/>
<path d="M0 0 C3 2.0625 3 2.0625 5 5 C5.15598429 9.36756012 4.53479471 11.32768665 1.8125 14.75 C-3.30902687 18.8472215 -7.38979303 20.60919758 -13.9375 20.34375 C-16 20 -16 20 -18.625 18.4375 C-20 16 -20 16 -20 12.5625 C-18.71774503 7.99446666 -17.1923094 5.45836234 -13.203125 2.8046875 C-8.77404198 0.34980815 -5.12948572 -0.87104475 0 0 Z " fill="#137A38" transform="translate(916,612)"/>
<path d="M0 0 C3.4544675 1.58940695 6.25386434 3.50772869 8 7 C8.4000134 10.68012333 8.51029897 12.3489289 6.1875 15.3125 C2.14531308 18.43075848 -2.08019811 18.48836269 -7 18 C-11.37563447 16.68730966 -13.49461944 15.58118765 -16.5 12.125 C-18 9 -18 9 -18.0625 6.375 C-14.62417287 -1.3106724 -7.43325628 -1.16850396 0 0 Z " fill="#107836" transform="translate(566,509)"/>
<path d="M0 0 C4.06402849 1.47979723 6.56800564 3.35200846 9 7 C9.36017958 10.38568806 9.38185838 12.3272019 7.6875 15.3125 C5.028114 17.971886 2.34786173 18.17452038 -1.25 18.25 C-5.77422406 18.17643538 -9.04317268 17.32754549 -13 15 C-15.56165744 12.05409394 -16.96867596 10.31560955 -17.0625 6.375 C-13.74098771 -1.04955688 -7.20117164 -1.04051264 0 0 Z " fill="#117836" transform="translate(565,348)"/>
<path d="M0 0 C1.5625 1.125 1.5625 1.125 2.5625 3.125 C2.82265644 7.18994443 2.65837489 10.79566805 0.00390625 14.015625 C-5.03450964 18.33127437 -8.38027977 19.48864159 -15.015625 19.40234375 C-17.4375 19.125 -17.4375 19.125 -20.0625 17.5 C-21.88159148 14.35793289 -22.01158417 12.71302607 -21.4375 9.125 C-17.15636755 0.56273509 -9.26840036 -3.32711808 0 0 Z " fill="#117836" transform="translate(219.4375,6.875)"/>
<path d="M0 0 C1.8203125 1.16796875 1.8203125 1.16796875 3.8203125 4.16796875 C4.35175871 7.53379474 4.00479085 8.86996526 2.1953125 11.79296875 C-2.0966484 16.08492965 -5.75242404 17.36394603 -11.7421875 17.60546875 C-15.35978915 17.49211066 -17.08454478 17.21647288 -20.3671875 15.54296875 C-22.1796875 13.16796875 -22.1796875 13.16796875 -22.7421875 10.23046875 C-21.84543647 5.34815759 -19.56556948 3.12488726 -15.5546875 0.35546875 C-10.53512235 -1.41067454 -5.06048623 -1.93169098 0 0 Z " fill="#127937" transform="translate(1096.1796875,528.83203125)"/>
<path d="M0 0 C1.9375 1.9375 1.9375 1.9375 3 5.3125 C2.9375 8.9375 2.9375 8.9375 1.375 11.6875 C-3.86105273 16.52077944 -8.49568057 17.56706937 -15.48828125 17.34765625 C-18.0625 16.9375 -18.0625 16.9375 -21.3125 14.875 C-23.0625 11.9375 -23.0625 11.9375 -23.1875 8.375 C-21.65441526 3.69057442 -19.32691278 2.25999318 -15.203125 -0.1484375 C-10.39695038 -2.20070914 -4.84153051 -1.67971467 0 0 Z " fill="#127937" transform="translate(58.0625,529.0625)"/>
<path d="M0 0 C4.75361439 1.7142664 8.49966887 4.59941721 11 9 C11.62876215 12.02517637 11.46070997 13.8262202 11 17 C8.19255953 19.80744047 6.11118594 19.98541824 2.1875 20.5 C-2.73804332 20.29476903 -6.3339451 18.19518547 -10 15 C-12.5763024 11.40879059 -13.02250545 9.67516359 -12.875 5.25 C-11.12126222 -1.26388317 -5.70015751 -0.76824086 0 0 Z " fill="#117836" transform="translate(42,421)"/>
<path d="M0 0 C4.75240486 1.73574162 8.49395007 4.58935212 11 9 C11.56446885 11.96782593 11.39909797 13.90699077 11 17 C9.24878294 19.43647591 7.91907675 19.84110264 5.01171875 20.34375 C-0.32994117 20.71277659 -3.97330095 19.56862842 -8.3359375 16.4921875 C-11.56043069 13.60074055 -12.73933552 10.56398688 -13.4375 6.375 C-13 4 -13 4 -11.5625 1.6875 C-7.74797496 -0.8245043 -4.43880288 -0.74229981 0 0 Z " fill="#107835" transform="translate(1081,260)"/>
<path d="M0 0 C3 1.625 3 1.625 5 4 C5.75008826 7.83378446 5.18281034 9.63437932 3.4375 13.125 C-0.07156265 17.2638944 -3.21337026 19.62308503 -8.5703125 20.34765625 C-15.23459833 20.5710944 -15.23459833 20.5710944 -17.76953125 18.6796875 C-19.87006433 15.81229314 -19.40700883 13.43050303 -19 10 C-15.03137826 1.90401165 -8.72354293 -1.12561844 0 0 Z " fill="#107836" transform="translate(1256,134)"/>
<path d="M0 0 C0.85464844 -0.01417969 1.70929688 -0.02835938 2.58984375 -0.04296875 C5.26902508 0.20674957 6.81447256 0.7260394 9.0625 2.1875 C11.24629446 5.4631917 11.60525639 6.38820529 11.0625 10.1875 C8.43828102 14.42662297 5.76312157 16.56364891 1.0625 18.1875 C-4.38581979 18.91661338 -8.4652522 19.1218111 -13.1875 16.125 C-14.9375 13.1875 -14.9375 13.1875 -15.125 9.6875 C-13.56066226 5.07682036 -11.92798648 3.90103081 -7.9375 1.1875 C-5.02663331 0.2172111 -3.03526315 0.02282153 0 0 Z " fill="#127937" transform="translate(1088.9375,688.8125)"/>
<path d="M0 0 C1.9375 1.9375 1.9375 1.9375 3 5.3125 C2.9375 8.9375 2.9375 8.9375 1.375 11.6875 C-3.86105273 16.52077944 -8.49568057 17.56706937 -15.48828125 17.34765625 C-18.0625 16.9375 -18.0625 16.9375 -21.3125 14.875 C-23.0625 11.9375 -23.0625 11.9375 -23.1875 8.375 C-21.65441526 3.69057442 -19.32691278 2.25999318 -15.203125 -0.1484375 C-10.39695038 -2.20070914 -4.84153051 -1.67971467 0 0 Z " fill="#127937" transform="translate(58.0625,690.0625)"/>
<path d="M0 0 C3.02467494 2.29142041 3.02467494 2.29142041 3.4375 5.25 C2.9551265 9.5109659 1.16453691 11.78785485 -1.9375 14.5625 C-6.75499367 17.77416245 -10.31617527 18.09786426 -15.9375 17.5625 C-20.50694444 15.42361111 -20.50694444 15.42361111 -21.9375 12.5625 C-22.50210345 8.4220747 -22.13391772 6.86290357 -19.8125 3.3125 C-14.40056876 -1.86412988 -6.86938837 -3.36161559 0 0 Z " fill="#117837" transform="translate(389.9375,676.4375)"/>
<path d="M0 0 C4.75240486 1.73574162 8.49395007 4.58935212 11 9 C11.56446885 11.96782593 11.39909797 13.90699077 11 17 C9.24878294 19.43647591 7.91907675 19.84110264 5.01171875 20.34375 C-0.32994117 20.71277659 -3.97330095 19.56862842 -8.3359375 16.4921875 C-11.56043069 13.60074055 -12.73933552 10.56398688 -13.4375 6.375 C-13 4 -13 4 -11.5625 1.6875 C-7.74797496 -0.8245043 -4.43880288 -0.74229981 0 0 Z " fill="#107735" transform="translate(42,260)"/>
<path d="M0 0 C4.75240486 1.73574162 8.49395007 4.58935212 11 9 C11.62876215 12.02517637 11.46070997 13.8262202 11 17 C8.19255953 19.80744047 6.11118594 19.98541824 2.1875 20.5 C-2.72801212 20.295187 -6.35036117 18.20497019 -10 15 C-12.4121612 11.38175821 -13.8028385 8.35826616 -13 4 C-9.86590013 -1.04181284 -5.3826892 -0.90014566 0 0 Z " fill="#107836" transform="translate(1081,132)"/>
<path d="M0 0 C3 1.625 3 1.625 5 4 C5.75008826 7.83378446 5.18281034 9.63437932 3.4375 13.125 C0.05604386 17.11338416 -3.14369903 19.57058989 -8.3125 20.34765625 C-11.76395792 20.47822127 -14.35838039 20.2660374 -17.5625 18.9375 C-19.83596044 15.87327071 -19.50340896 13.71264105 -19 10 C-15.03137826 1.90401165 -8.72354293 -1.12561844 0 0 Z " fill="#117836" transform="translate(1256,6)"/>
<path d="M0 0 C4.06402849 1.47979723 6.56800564 3.35200846 9 7 C9.51451424 11.04261188 9.65485184 13.11933718 7.1875 16.4375 C2.45165592 18.7589922 -1.82251401 18.74810599 -7 18 C-11.06402849 16.52020277 -13.56800564 14.64799154 -16 11 C-16.51451424 6.95738812 -16.65485184 4.88066282 -14.1875 1.5625 C-9.45165592 -0.7589922 -5.17748599 -0.74810599 0 0 Z " fill="#107735" transform="translate(919,668)"/>
<path d="M0 0 C2.5 1.625 2.5 1.625 4 4 C4.65875108 7.78781874 4.16518101 9.65587289 2.5 13.125 C-1.06226925 17.22160963 -4.78157391 19.42861276 -10.15625 20.3828125 C-13.50097891 20.57001748 -15.65490117 20.21568677 -18.5 18.4375 C-20.62011145 14.99231889 -20.61814926 12.98362857 -20 9 C-15.26984346 1.54642 -8.66927351 -0.99483467 0 0 Z " fill="#107836" transform="translate(1257,617)"/>
<path d="M0 0 C4.75240486 1.73574162 8.49395007 4.58935212 11 9 C11.62876215 12.02517637 11.46070997 13.8262202 11 17 C8.19255953 19.80744047 6.11118594 19.98541824 2.1875 20.5 C-2.72801212 20.295187 -6.35036117 18.20497019 -10 15 C-12.4121612 11.38175821 -13.8028385 8.35826616 -13 4 C-9.86590013 -1.04181284 -5.3826892 -0.90014566 0 0 Z " fill="#107836" transform="translate(42,132)"/>
<path d="M0 0 C3.90041818 1.95020909 6.93692592 4.1030823 9 8 C9.5 11 9.5 11 9 14 C7.25 16.375 7.25 16.375 4 18 C-1.32623787 18.73002981 -6.93410448 19.18735664 -11.625 16.1875 C-14.70267453 13.35279977 -15.90406571 11.75376939 -16.4375 7.5625 C-16 4 -16 4 -14.1875 1.5625 C-9.46224622 -0.75380087 -5.16608527 -0.75860283 0 0 Z " fill="#107835" transform="translate(919,57)"/>
<path d="M0 0 C2.5 1.625 2.5 1.625 4 4 C4.65875108 7.78781874 4.16518101 9.65587289 2.5 13.125 C-1.06226925 17.22160963 -4.78157391 19.42861276 -10.15625 20.3828125 C-13.53993828 20.57219804 -15.65241461 20.2259305 -18.5 18.375 C-20.47945017 15.24087057 -20.58503961 13.65649759 -20 10 C-17.68433501 5.17569794 -14.93094068 2.81541769 -10.15625 0.6953125 C-6.47622273 -0.49136296 -3.86076667 -0.51476889 0 0 Z " fill="#107835" transform="translate(218,617)"/>
<path d="M0 0 C3.74071574 2.28599295 7.01873386 5.03746771 9 9 C9.375 12.375 9.375 12.375 9 16 C6.37470703 19.10261896 4.68596442 19.88351548 0.6875 20.5625 C-5.1151821 19.6773451 -10.20492066 16.52274942 -14 12 C-14.91511179 9.3313806 -15.15282634 6.81313672 -15 4 C-12.17300217 -1.65399567 -5.48853219 -1.15667414 0 0 Z " fill="#107835" transform="translate(44,743)"/>
<path d="M0 0 C3 1.625 3 1.625 5 4 C5.74357849 7.80051229 5.17313808 9.63929567 3.5 13.125 C-0.04528453 17.20207721 -3.7776096 19.48044792 -9.15625 20.34765625 C-12.22296856 20.47925052 -14.67583758 20.13776903 -17.5 18.9375 C-19 17 -19 17 -19.5 13.6875 C-18.83986756 8.81902326 -17.29969953 5.88051379 -13.45703125 2.73828125 C-8.9210798 -0.21994796 -5.34856955 -0.69013801 0 0 Z " fill="#117836" transform="translate(1256,295)"/>
<path d="M0 0 C1.5625 1.125 1.5625 1.125 2.5625 3.125 C2.98472151 6.84054927 2.69270872 8.85373183 1.0625 12.25 C-2.49976925 16.34660963 -6.21907391 18.55361276 -11.59375 19.5078125 C-14.97743828 19.69719804 -17.08991461 19.3509305 -19.9375 17.5 C-21.91695017 14.36587057 -22.02253961 12.78149759 -21.4375 9.125 C-17.15636755 0.56273509 -9.26840036 -3.32711808 0 0 Z " fill="#117836" transform="translate(219.4375,295.875)"/>
<path d="M0 0 C2.6875 1.5625 2.6875 1.5625 4 4 C4.17295445 8.58329281 3.05745092 11.32136933 0.25 14.8125 C-3.71382257 18.99184957 -6.92607211 20.07312662 -12.625 20.3125 C-15.34747991 20.37289631 -16.55067691 20.33774621 -18.74609375 18.6875 C-20.87590745 15.82120867 -20.40884264 13.44595943 -20 10 C-15.64724257 1.46189888 -9.27127214 -1.53728786 0 0 Z " fill="#107836" transform="translate(559,293)"/>
<path d="M0 0 C3.38545671 2.30826594 5.50223657 4.43724417 7.75 7.875 C8.375 11.5 8.375 11.5 7.75 14.875 C5.875 17.375 5.875 17.375 2.75 18.875 C-2.92503201 19.52719064 -7.29193082 18.36299312 -11.8125 14.875 C-15.24094189 11.5091463 -16.45734796 8.62867459 -16.5390625 3.83203125 C-16.25 1.875 -16.25 1.875 -14.875 -0.1875 C-9.77864015 -2.00762852 -5.08083007 -1.75874887 0 0 Z " fill="#107735" transform="translate(1084.25,744.125)"/>
<path d="M0 0 C3 1.625 3 1.625 5 4 C5.74357849 7.80051229 5.17313808 9.63929567 3.5 13.125 C-0.06226925 17.22160963 -3.78157391 19.42861276 -9.15625 20.3828125 C-12.53993828 20.57219804 -14.65241461 20.2259305 -17.5 18.375 C-19.47945017 15.24087057 -19.58503961 13.65649759 -19 10 C-14.95920919 1.91841839 -8.768724 -1.13144826 0 0 Z " fill="#117836" transform="translate(1256,456)"/>
<path d="M0 0 C1.5625 1.125 1.5625 1.125 2.5625 3.125 C2.98472151 6.84054927 2.69270872 8.85373183 1.0625 12.25 C-2.49976925 16.34660963 -6.21907391 18.55361276 -11.59375 19.5078125 C-14.97743828 19.69719804 -17.08991461 19.3509305 -19.9375 17.5 C-21.91695017 14.36587057 -22.02253961 12.78149759 -21.4375 9.125 C-17.15636755 0.56273509 -9.26840036 -3.32711808 0 0 Z " fill="#117836" transform="translate(219.4375,456.875)"/>
<path d="M0 0 C2.6875 1.5625 2.6875 1.5625 4 4 C4.0809409 8.37080842 3.26872468 10.58900931 0.875 14.25 C-3.31652121 18.25928116 -6.93491582 19.78999144 -12.6875 20.375 C-16.25271998 19.97139019 -17.74362016 19.797911 -20 17 C-20.63035826 12.82387653 -20.29723193 10.58303186 -18.375 6.8125 C-13.05598083 0.51366151 -8.07757168 -1.33935804 0 0 Z " fill="#117836" transform="translate(559,615)"/>
<path d="M0 0 C2.6875 1.5625 2.6875 1.5625 4 4 C4.0809409 8.37080842 3.26872468 10.58900931 0.875 14.25 C-3.31652121 18.25928116 -6.93491582 19.78999144 -12.6875 20.375 C-16.25271998 19.97139019 -17.74362016 19.797911 -20 17 C-20.63035826 12.82387653 -20.29723193 10.58303186 -18.375 6.8125 C-13.05598083 0.51366151 -8.07757168 -1.33935804 0 0 Z " fill="#117836" transform="translate(559,454)"/>
<path d="M0 0 C4.14102435 1.53371272 7.39251335 3.38963387 10 7 C10.5625 10.5 10.5625 10.5 10 14 C7.80404712 16.95317801 6.09241923 17.83672625 2.46484375 18.37890625 C-3.89806365 18.65022692 -7.88914086 17.80595893 -13 14 C-15.48836965 10.26744552 -15.54226552 8.41559065 -15 4 C-11.09943116 -1.07073949 -5.88525103 -0.78407036 0 0 Z " fill="#0F7734" transform="translate(918,507)"/>
<path d="M0 0 C1.8125 2 1.8125 2 2.5625 5.8125 C2.40837689 8.50716865 2.04980128 9.706678 0.33984375 11.8203125 C-4.75116224 16.29520949 -8.9999846 17.42853241 -15.73046875 17.33984375 C-18.1875 17 -18.1875 17 -21.375 14.9375 C-23.1875 12 -23.1875 12 -23.375 8.5 C-19.92751147 -1.66101882 -9.21882837 -2.89218145 0 0 Z " fill="#107836" transform="translate(750.1875,366)"/>
<path d="M0 0 C3.90041818 1.95020909 6.93692592 4.1030823 9 8 C9.5 11 9.5 11 9 14 C6.79705644 16.8866157 5.05108982 17.84128382 1.46484375 18.3828125 C-4.8985758 18.64540203 -8.88789013 17.80689033 -14 14 C-16.48836965 10.26744552 -16.54226552 8.41559065 -16 4 C-12.05325146 -1.30769632 -6.04091746 -0.88706571 0 0 Z " fill="#0F7735" transform="translate(919,346)"/>
<path d="M0 0 C1.8125 2 1.8125 2 2.5625 5.8125 C2.40837689 8.50716865 2.04980128 9.706678 0.33984375 11.8203125 C-4.75116224 16.29520949 -8.9999846 17.42853241 -15.73046875 17.33984375 C-18.1875 17 -18.1875 17 -21.375 14.9375 C-23.1875 12 -23.1875 12 -23.375 8.5 C-19.92751147 -1.66101882 -9.21882837 -2.89218145 0 0 Z " fill="#107836" transform="translate(750.1875,205)"/>
<path d="M0 0 C1.8125 2 1.8125 2 2.5625 5.8125 C2.40837689 8.50716865 2.04980128 9.706678 0.33984375 11.8203125 C-4.75116224 16.29520949 -8.9999846 17.42853241 -15.73046875 17.33984375 C-18.1875 17 -18.1875 17 -21.375 14.9375 C-23.1875 12 -23.1875 12 -23.375 8.5 C-19.92751147 -1.66101882 -9.21882837 -2.89218145 0 0 Z " fill="#107836" transform="translate(750.1875,77)"/>
<path d="M0 0 C2.5625 1.5625 2.5625 1.5625 4 4 C4.17295445 8.58329281 3.05745092 11.32136933 0.25 14.8125 C-3.71382257 18.99184957 -6.92607211 20.07312662 -12.625 20.3125 C-15.34747991 20.37289631 -16.55067691 20.33774621 -18.74609375 18.6875 C-20.87590745 15.82120867 -20.40884264 13.44595943 -20 10 C-17.72150313 5.15819414 -14.92858523 2.8143718 -10.15625 0.6953125 C-6.47622273 -0.49136296 -3.86076667 -0.51476889 0 0 Z " fill="#107836" transform="translate(559,132)"/>
<path d="M0 0 C2.5625 1.5625 2.5625 1.5625 4 4 C4.17295445 8.58329281 3.05745092 11.32136933 0.25 14.8125 C-3.71382257 18.99184957 -6.92607211 20.07312662 -12.625 20.3125 C-15.34747991 20.37289631 -16.55067691 20.33774621 -18.74609375 18.6875 C-20.87590745 15.82120867 -20.40884264 13.44595943 -20 10 C-17.72150313 5.15819414 -14.92858523 2.8143718 -10.15625 0.6953125 C-6.47622273 -0.49136296 -3.86076667 -0.51476889 0 0 Z " fill="#107836" transform="translate(559,4)"/>
</svg>
